<svg width="57" height="73" viewBox="0 0 57 73" fill="none" xmlns="http://www.w3.org/2000/svg">
<g opacity="0.33" clip-path="url(#clip0_2290_7090)">
<path d="M24.522 16.3094C26.6773 16.4782 28.8116 15.7852 30.4567 14.3824C32.1017 12.9796 33.1232 10.9816 33.297 8.82662C33.4635 6.66999 32.7683 4.53529 31.3636 2.89041C29.9589 1.24554 27.9593 0.22469 25.8032 0.0516175C23.6472 -0.118366 21.5119 0.574929 19.8669 1.97904C18.2219 3.38316 17.202 5.38312 17.0313 7.53912C16.9472 8.60693 17.0742 9.68087 17.4051 10.6996C17.736 11.7183 18.2643 12.6619 18.9599 13.4765C19.6555 14.291 20.5047 14.9606 21.459 15.4469C22.4133 15.9333 23.4541 16.2269 24.522 16.311V16.3094ZM26.7579 32.6547C28.0149 32.8965 29.148 33.5695 29.9616 34.5577C30.7753 35.5459 31.2183 36.7872 31.2142 38.0672C31.2133 39.529 30.6323 40.9306 29.5987 41.9643C28.5651 42.9979 27.1634 43.5789 25.7017 43.5797H7.83916C7.2648 43.5799 6.69922 43.4388 6.19232 43.1687C5.68541 42.8986 5.25276 42.508 4.93253 42.0312C4.6123 41.5544 4.41433 41.0061 4.35608 40.4347C4.29783 39.8633 4.38109 39.2864 4.59853 38.7547L6.52978 34.2469L28.0392 18.8407H17.7907C13.8548 18.7313 11.0892 20.0985 9.50322 23.1985C8.42822 25.2844 2.71884 38.0391 2.71884 38.0391C2.3849 38.8756 2.26103 39.7813 2.35807 40.6767C2.4551 41.5722 2.77008 42.4303 3.27546 43.1758C3.78084 43.9214 4.46121 44.5318 5.25706 44.9536C6.05291 45.3754 6.94 45.5957 7.84072 45.5954H14.8173L12.7595 59.1266L1.93134 90.4172C1.49353 91.7437 1.60059 93.1898 2.22899 94.4374C2.85738 95.6849 3.95563 96.6318 5.28212 97.0696C6.60862 97.5074 8.05471 97.4003 9.30226 96.7719C10.5498 96.1435 11.4967 95.0453 11.9345 93.7188L24.386 58.4219C26.8142 62.3672 31.647 69.4391 32.4688 70.7751C32.6579 72.9954 34.397 92.5688 34.397 92.5688C34.522 93.9599 35.1939 95.2446 36.2652 96.1407C37.3366 97.0369 38.7197 97.4712 40.111 97.3485C40.8002 97.2874 41.4705 97.0911 42.0837 96.7708C42.6969 96.4505 43.241 96.0126 43.6849 95.4819C44.1288 94.9512 44.4638 94.3383 44.6707 93.6781C44.8776 93.018 44.9523 92.3235 44.8907 91.6344L42.8438 68.5985C42.7748 67.7824 42.5123 66.9945 42.0782 66.3L33.1267 51.7922L34.5517 33.5844C34.5517 33.5844 36.672 40.7891 36.8298 41.3094C37.2845 42.7969 38.3095 43.8641 39.361 44.7157C39.9767 45.2063 50.4251 52.3172 50.4251 52.3172C51.0063 52.586 51.4813 52.8219 52.1048 52.8641C52.5862 52.9032 53.0706 52.847 53.5302 52.6986C53.9898 52.5502 54.4156 52.3126 54.7833 51.9993C55.1509 51.6861 55.4532 51.3034 55.6727 50.8732C55.8922 50.443 56.0247 49.9737 56.0626 49.4922C56.1096 48.8783 56.0028 48.2623 55.7518 47.7C55.5008 47.1377 55.1136 46.6469 54.6251 46.2719C54.6251 46.2719 44.2142 39.1235 43.7907 38.8126C43.4795 38.5633 43.2423 38.2337 43.1048 37.8594L38.9845 23.0188C38.3142 20.7735 36.0517 18.8422 33.1907 18.8422H31.9579L26.7579 32.6547Z" fill="#0D425D"/>
<path d="M25.7017 41.5643C26.5994 41.5721 27.4655 41.2335 28.1198 40.6189C28.7742 40.0043 29.1663 39.161 29.2146 38.2646C29.2629 37.3682 28.9637 36.4876 28.3792 35.8062C27.7947 35.1249 26.97 34.6951 26.0767 34.6064L23.522 41.5861L25.7017 41.5643Z" fill="#0D425D"/>
</g>
<defs>
<clipPath id="clip0_2290_7090">
<rect width="56" height="98" fill="white" transform="translate(0.79541)"/>
</clipPath>
</defs>
</svg>
