<svg width="90" height="78" viewBox="0 0 90 78" fill="none" xmlns="http://www.w3.org/2000/svg">
<g opacity="0.33">
<path d="M45 2.8125C21.7005 2.8125 2.8125 21.7005 2.8125 45C2.8125 68.2995 21.7005 87.1875 45 87.1875C68.2995 87.1875 87.1875 68.2995 87.1875 45C87.1875 21.7005 68.2995 2.8125 45 2.8125ZM70.8536 70.8536C64.4429 77.2451 55.8822 81.021 46.8397 81.4455C37.7971 81.8699 28.9204 78.9126 21.9391 73.1498C14.9579 67.3869 10.3723 59.2313 9.07574 50.2721C7.77921 41.3129 9.86468 32.1919 14.9258 24.6863C19.9869 17.1807 27.6611 11.8283 36.453 9.67188C45.245 7.51546 54.5248 8.70957 62.4844 13.0215C70.4441 17.3335 76.5132 24.4544 79.5093 32.9967C82.5054 41.5391 82.2139 50.8909 78.6915 59.23C76.8558 63.5753 74.1939 67.5229 70.8536 70.8536Z" fill="#0D425D"/>
<path d="M29.5313 56.2504H60.4688V61.8754H29.5313V56.2504ZM37.0248 40.0859L32.7987 36.3293L36.5551 32.1033L32.3512 28.3662L28.5945 32.5923L24.3686 28.8359L20.6315 33.0399L24.8576 36.7965L21.1012 41.0225L25.3051 44.7596L29.0618 40.5334L33.2877 44.2899L37.0248 40.0859ZM67.4926 32.1033L63.2887 28.3662L59.532 32.5923L55.3061 28.8359L51.569 33.0399L55.7951 36.7965L52.0387 41.0225L56.2426 44.7596L59.9993 40.5334L64.2252 44.2899L67.9623 40.0859L63.7362 36.3293L67.4926 32.1033Z" fill="#0D425D"/>
</g>
</svg>
