<svg width="90" height="73" viewBox="0 0 90 73" fill="none" xmlns="http://www.w3.org/2000/svg">
<g opacity="0.33" clip-path="url(#clip0_2293_5801)">
<path d="M78.6075 22.4681H69.375V12.6832C69.375 5.68817 63.8475 0 56.8237 0H33.1781C26.1506 0 20.625 5.68817 20.625 12.6832V22.4681H11.3906C5.09812 22.4681 0 27.3193 0 33.5842V76.6611C0 82.9241 5.09812 88 11.3906 88H78.6075C84.8981 88 90 82.9241 90 76.6592V33.5842C90 27.3193 84.8981 22.4681 78.6075 22.4681ZM28.125 12.6832C28.125 10.0638 30.5475 7.48936 33.1781 7.48936H56.8237C59.4469 7.48936 61.875 10.0638 61.875 12.6832V22.4681H28.125V12.6832ZM65.625 63.6596H52.5V76.766H37.5V63.6596H24.375V48.6809H37.5V35.5745H52.5V48.6809H65.625V63.6596Z" fill="#0D425D"/>
</g>
<defs>
<clipPath id="clip0_2293_5801">
<rect width="90" height="88" fill="white"/>
</clipPath>
</defs>
</svg>
