<svg width="76" height="69" viewBox="0 0 76 69" fill="none" xmlns="http://www.w3.org/2000/svg">
<g opacity="0.33">
<path d="M63.3334 65.2305V56.4613C63.3334 48.1949 63.3334 44.0587 60.5499 41.4922C57.7695 38.9229 53.2887 38.9229 44.3334 38.9229L38 44.769L31.6667 38.9229C22.7114 38.9229 18.2305 38.9229 15.4502 41.4922C12.6667 44.0587 12.6667 48.1949 12.6667 56.4613V65.2305M50.6667 38.9229V54.9998" stroke="#0D425D" stroke-width="4" stroke-linecap="round" stroke-linejoin="round"/>
<path d="M26.7948 41.4976V53.1899M26.7948 53.1899C28.4745 53.1899 30.0854 53.8058 31.2731 54.9022C32.4608 55.9986 33.1281 57.4856 33.1281 59.0361V61.9591M26.7948 53.1899C25.1151 53.1899 23.5041 53.8058 22.3164 54.9022C21.1287 55.9986 20.4614 57.4856 20.4614 59.0361V61.9591M48.9614 22.4976V19.5745C48.9614 18.231 48.6748 16.9006 48.1178 15.6594C47.5608 14.4181 46.7444 13.2903 45.7152 12.3403C44.686 11.3903 43.4642 10.6367 42.1195 10.1225C40.7748 9.60838 39.3336 9.34375 37.8781 9.34375C36.4226 9.34375 34.9814 9.60838 33.6367 10.1225C32.292 10.6367 31.0702 11.3903 30.041 12.3403C29.0118 13.2903 28.1954 14.4181 27.6384 15.6594C27.0814 16.9006 26.7948 18.231 26.7948 19.5745V22.4976C26.7948 23.8411 27.0814 25.1715 27.6384 26.4127C28.1954 27.654 29.0118 28.7818 30.041 29.7318C31.0702 30.6819 32.292 31.4355 33.6367 31.9496C34.9814 32.4637 36.4226 32.7284 37.8781 32.7284C39.3336 32.7284 40.7748 32.4637 42.1195 31.9496C43.4642 31.4355 44.686 30.6819 45.7152 29.7318C46.7444 28.7818 47.5608 27.654 48.1178 26.4127C48.6748 25.1715 48.9614 23.8411 48.9614 22.4976ZM52.9198 59.7668C52.9198 60.3483 52.6695 60.9059 52.2241 61.317C51.7787 61.7282 51.1747 61.9591 50.5448 61.9591C49.9149 61.9591 49.3108 61.7282 48.8654 61.317C48.42 60.9059 48.1698 60.3483 48.1698 59.7668C48.1698 59.1854 48.42 58.6278 48.8654 58.2166C49.3108 57.8055 49.9149 57.5745 50.5448 57.5745C51.1747 57.5745 51.7787 57.8055 52.2241 58.2166C52.6695 58.6278 52.9198 59.1854 52.9198 59.7668Z" stroke="#0D425D" stroke-width="4" stroke-linecap="round" stroke-linejoin="round"/>
<ellipse cx="59.5" cy="17.4231" rx="6.5" ry="6.30303" fill="#0D425D"/>
</g>
</svg>
