<?xml version="1.0" standalone="no"?>
<!DOCTYPE svg PUBLIC "-//W3C//DTD SVG 20010904//EN"
 "http://www.w3.org/TR/2001/REC-SVG-20010904/DTD/svg10.dtd">
<svg version="1.0" xmlns="http://www.w3.org/2000/svg"
 width="1280.000000pt" height="1333.000000pt" viewBox="0 0 1280.000000 1333.000000"
 preserveAspectRatio="xMidYMid meet">
<metadata>
Created by potrace 1.16, written by Peter Selinger 2001-2019
</metadata>
<g transform="translate(0.000000,1333.000000) scale(0.100000,-0.100000)"
fill="#000000" stroke="none">
<path d="M7170 10550 c-129 -27 -287 -154 -348 -280 -77 -158 -71 -369 15
-520 16 -28 462 -482 1195 -1216 l1169 -1171 -2363 -6 c-1300 -4 -2825 -7
-3390 -7 l-1028 0 -67 -25 c-139 -53 -249 -153 -312 -285 l-36 -75 0 -155 0
-155 39 -79 c67 -133 178 -230 323 -283 l64 -23 1022 0 c562 0 2086 -3 3386
-7 l2364 -6 -1130 -1126 c-622 -619 -1157 -1161 -1191 -1203 -82 -104 -104
-164 -110 -304 -3 -86 -1 -124 13 -170 68 -237 275 -394 516 -394 96 0 182 21
272 66 68 34 136 100 1306 1268 1856 1852 2104 2103 2135 2164 14 28 33 77 41
109 20 76 19 225 -1 294 -42 144 21 76 -1383 1478 -1427 1424 -1981 1967
-2077 2039 -35 26 -80 53 -101 61 -46 17 -259 24 -323 11z"/>
</g>
</svg>
