<svg width="66" height="38" viewBox="0 0 66 38" fill="none" xmlns="http://www.w3.org/2000/svg">
<g filter="url(#filter0_d_4100_6679)">
<rect x="4" y="0.296875" width="58" height="29" rx="14.5" fill="#39B54A" shape-rendering="crispEdges"/>
<path d="M16.9607 14.3969C16.9607 13.4355 17.1754 12.5769 17.6047 11.8209C18.0434 11.0555 18.636 10.4629 19.3827 10.0429C20.1387 9.61354 20.9834 9.39887 21.9167 9.39887C23.0087 9.39887 23.9654 9.67887 24.7867 10.2389C25.608 10.7989 26.182 11.5735 26.5087 12.5629H24.2547C24.0307 12.0962 23.7134 11.7462 23.3027 11.5129C22.9014 11.2795 22.4347 11.1629 21.9027 11.1629C21.3334 11.1629 20.8247 11.2982 20.3767 11.5689C19.938 11.8302 19.5927 12.2035 19.3407 12.6889C19.098 13.1742 18.9767 13.7435 18.9767 14.3969C18.9767 15.0409 19.098 15.6102 19.3407 16.1049C19.5927 16.5902 19.938 16.9682 20.3767 17.2389C20.8247 17.5002 21.3334 17.6309 21.9027 17.6309C22.4347 17.6309 22.9014 17.5142 23.3027 17.2809C23.7134 17.0382 24.0307 16.6835 24.2547 16.2169H26.5087C26.182 17.2155 25.608 17.9949 24.7867 18.5549C23.9747 19.1055 23.018 19.3809 21.9167 19.3809C20.9834 19.3809 20.1387 19.1709 19.3827 18.7509C18.636 18.3215 18.0434 17.7289 17.6047 16.9729C17.1754 16.2169 16.9607 15.3582 16.9607 14.3969ZM31.6268 19.4229C30.8801 19.4229 30.2081 19.2595 29.6108 18.9329C29.0135 18.5969 28.5421 18.1255 28.1968 17.5189C27.8608 16.9122 27.6928 16.2122 27.6928 15.4189C27.6928 14.6255 27.8655 13.9255 28.2108 13.3189C28.5655 12.7122 29.0461 12.2455 29.6528 11.9189C30.2595 11.5829 30.9361 11.4149 31.6828 11.4149C32.4295 11.4149 33.1061 11.5829 33.7128 11.9189C34.3195 12.2455 34.7955 12.7122 35.1408 13.3189C35.4955 13.9255 35.6728 14.6255 35.6728 15.4189C35.6728 16.2122 35.4908 16.9122 35.1268 17.5189C34.7721 18.1255 34.2868 18.5969 33.6708 18.9329C33.0641 19.2595 32.3828 19.4229 31.6268 19.4229ZM31.6268 17.7149C31.9815 17.7149 32.3128 17.6309 32.6208 17.4629C32.9381 17.2855 33.1901 17.0242 33.3768 16.6789C33.5635 16.3335 33.6568 15.9135 33.6568 15.4189C33.6568 14.6815 33.4608 14.1169 33.0688 13.7249C32.6861 13.3235 32.2148 13.1229 31.6548 13.1229C31.0948 13.1229 30.6235 13.3235 30.2408 13.7249C29.8675 14.1169 29.6808 14.6815 29.6808 15.4189C29.6808 16.1562 29.8628 16.7255 30.2268 17.1269C30.6001 17.5189 31.0668 17.7149 31.6268 17.7149ZM39.0705 8.93687V19.2969H37.1105V8.93687H39.0705ZM40.503 15.3909C40.503 14.6069 40.657 13.9115 40.965 13.3049C41.2823 12.6982 41.7117 12.2315 42.253 11.9049C42.7943 11.5782 43.3963 11.4149 44.059 11.4149C44.563 11.4149 45.0437 11.5269 45.501 11.7509C45.9583 11.9655 46.3223 12.2549 46.593 12.6189V8.93687H48.581V19.2969H46.593V18.1489C46.3503 18.5315 46.0097 18.8395 45.571 19.0729C45.1323 19.3062 44.6237 19.4229 44.045 19.4229C43.3917 19.4229 42.7943 19.2549 42.253 18.9189C41.7117 18.5829 41.2823 18.1115 40.965 17.5049C40.657 16.8889 40.503 16.1842 40.503 15.3909ZM46.607 15.4189C46.607 14.9429 46.5137 14.5369 46.327 14.2009C46.1403 13.8555 45.8883 13.5942 45.571 13.4169C45.2537 13.2302 44.913 13.1369 44.549 13.1369C44.185 13.1369 43.849 13.2255 43.541 13.4029C43.233 13.5802 42.981 13.8415 42.785 14.1869C42.5983 14.5229 42.505 14.9242 42.505 15.3909C42.505 15.8575 42.5983 16.2682 42.785 16.6229C42.981 16.9682 43.233 17.2342 43.541 17.4209C43.8583 17.6075 44.1943 17.7009 44.549 17.7009C44.913 17.7009 45.2537 17.6122 45.571 17.4349C45.8883 17.2482 46.1403 16.9869 46.327 16.6509C46.5137 16.3055 46.607 15.8949 46.607 15.4189Z" fill="#F5F5F5"/>
</g>
<defs>
<filter id="filter0_d_4100_6679" x="0" y="0.296875" width="66" height="37" filterUnits="userSpaceOnUse" color-interpolation-filters="sRGB">
<feFlood flood-opacity="0" result="BackgroundImageFix"/>
<feColorMatrix in="SourceAlpha" type="matrix" values="0 0 0 0 0 0 0 0 0 0 0 0 0 0 0 0 0 0 127 0" result="hardAlpha"/>
<feOffset dy="4"/>
<feGaussianBlur stdDeviation="2"/>
<feComposite in2="hardAlpha" operator="out"/>
<feColorMatrix type="matrix" values="0 0 0 0 0 0 0 0 0 0 0 0 0 0 0 0 0 0 0.15 0"/>
<feBlend mode="normal" in2="BackgroundImageFix" result="effect1_dropShadow_4100_6679"/>
<feBlend mode="normal" in="SourceGraphic" in2="effect1_dropShadow_4100_6679" result="shape"/>
</filter>
</defs>
</svg>
