<svg width="84" height="38" viewBox="0 0 84 38" fill="none" xmlns="http://www.w3.org/2000/svg">
<g filter="url(#filter0_d_4100_6659)">
<rect x="4" y="0.296875" width="76" height="29" rx="14.5" fill="#1D1D1D" shape-rendering="crispEdges"/>
<path d="M16.7732 14.3969C16.7732 13.4355 16.9879 12.5769 17.4172 11.8209C17.8559 11.0555 18.4485 10.4629 19.1952 10.0429C19.9512 9.61354 20.7959 9.39887 21.7292 9.39887C22.8212 9.39887 23.7779 9.67887 24.5992 10.2389C25.4205 10.7989 25.9945 11.5735 26.3212 12.5629H24.0672C23.8432 12.0962 23.5259 11.7462 23.1152 11.5129C22.7139 11.2795 22.2472 11.1629 21.7152 11.1629C21.1459 11.1629 20.6372 11.2982 20.1892 11.5689C19.7505 11.8302 19.4052 12.2035 19.1532 12.6889C18.9105 13.1742 18.7892 13.7435 18.7892 14.3969C18.7892 15.0409 18.9105 15.6102 19.1532 16.1049C19.4052 16.5902 19.7505 16.9682 20.1892 17.2389C20.6372 17.5002 21.1459 17.6309 21.7152 17.6309C22.2472 17.6309 22.7139 17.5142 23.1152 17.2809C23.5259 17.0382 23.8432 16.6835 24.0672 16.2169H26.3212C25.9945 17.2155 25.4205 17.9949 24.5992 18.5549C23.7872 19.1055 22.8305 19.3809 21.7292 19.3809C20.7959 19.3809 19.9512 19.1709 19.1952 18.7509C18.4485 18.3215 17.8559 17.7289 17.4172 16.9729C16.9879 16.2169 16.7732 15.3582 16.7732 14.3969ZM29.9553 12.7449C30.2073 12.3342 30.534 12.0122 30.9353 11.7789C31.346 11.5455 31.8126 11.4289 32.3353 11.4289V13.4869H31.8173C31.2013 13.4869 30.7346 13.6315 30.4173 13.9209C30.1093 14.2102 29.9553 14.7142 29.9553 15.4329V19.2969H27.9953V11.5409H29.9553V12.7449ZM34.6495 10.6169C34.3041 10.6169 34.0148 10.5095 33.7815 10.2949C33.5575 10.0709 33.4455 9.79554 33.4455 9.46887C33.4455 9.14221 33.5575 8.87154 33.7815 8.65687C34.0148 8.43287 34.3041 8.32087 34.6495 8.32087C34.9948 8.32087 35.2795 8.43287 35.5035 8.65687C35.7368 8.87154 35.8535 9.14221 35.8535 9.46887C35.8535 9.79554 35.7368 10.0709 35.5035 10.2949C35.2795 10.5095 34.9948 10.6169 34.6495 10.6169ZM35.6155 11.5409V19.2969H33.6555V11.5409H35.6155ZM39.8339 13.1509V16.9029C39.8339 17.1642 39.8946 17.3555 40.0159 17.4769C40.1466 17.5889 40.3613 17.6449 40.6599 17.6449H41.5699V19.2969H40.3379C38.6859 19.2969 37.8599 18.4942 37.8599 16.8889V13.1509H36.9359V11.5409H37.8599V9.62287H39.8339V11.5409H41.5699V13.1509H39.8339ZM43.9737 10.6169C43.6283 10.6169 43.339 10.5095 43.1057 10.2949C42.8817 10.0709 42.7697 9.79554 42.7697 9.46887C42.7697 9.14221 42.8817 8.87154 43.1057 8.65687C43.339 8.43287 43.6283 8.32087 43.9737 8.32087C44.319 8.32087 44.6037 8.43287 44.8277 8.65687C45.061 8.87154 45.1777 9.14221 45.1777 9.46887C45.1777 9.79554 45.061 10.0709 44.8277 10.2949C44.6037 10.5095 44.319 10.6169 43.9737 10.6169ZM44.9397 11.5409V19.2969H42.9797V11.5409H44.9397ZM46.3722 15.4189C46.3722 14.6162 46.5355 13.9162 46.8622 13.3189C47.1888 12.7122 47.6415 12.2455 48.2202 11.9189C48.7988 11.5829 49.4615 11.4149 50.2082 11.4149C51.1695 11.4149 51.9628 11.6575 52.5882 12.1429C53.2228 12.6189 53.6475 13.2909 53.8622 14.1589H51.7482C51.6362 13.8229 51.4448 13.5615 51.1742 13.3749C50.9128 13.1789 50.5862 13.0809 50.1942 13.0809C49.6342 13.0809 49.1908 13.2862 48.8642 13.6969C48.5375 14.0982 48.3742 14.6722 48.3742 15.4189C48.3742 16.1562 48.5375 16.7302 48.8642 17.1409C49.1908 17.5422 49.6342 17.7429 50.1942 17.7429C50.9875 17.7429 51.5055 17.3882 51.7482 16.6789H53.8622C53.6475 17.5189 53.2228 18.1862 52.5882 18.6809C51.9535 19.1755 51.1602 19.4229 50.2082 19.4229C49.4615 19.4229 48.7988 19.2595 48.2202 18.9329C47.6415 18.5969 47.1888 18.1302 46.8622 17.5329C46.5355 16.9262 46.3722 16.2215 46.3722 15.4189ZM54.794 15.3909C54.794 14.6069 54.948 13.9115 55.256 13.3049C55.5734 12.6982 55.998 12.2315 56.53 11.9049C57.0714 11.5782 57.6734 11.4149 58.336 11.4149C58.9147 11.4149 59.4187 11.5315 59.848 11.7649C60.2867 11.9982 60.6367 12.2922 60.898 12.6469V11.5409H62.872V19.2969H60.898V18.1629C60.646 18.5269 60.296 18.8302 59.848 19.0729C59.4094 19.3062 58.9007 19.4229 58.322 19.4229C57.6687 19.4229 57.0714 19.2549 56.53 18.9189C55.998 18.5829 55.5734 18.1115 55.256 17.5049C54.948 16.8889 54.794 16.1842 54.794 15.3909ZM60.898 15.4189C60.898 14.9429 60.8047 14.5369 60.618 14.2009C60.4314 13.8555 60.1794 13.5942 59.862 13.4169C59.5447 13.2302 59.204 13.1369 58.84 13.1369C58.476 13.1369 58.14 13.2255 57.832 13.4029C57.524 13.5802 57.272 13.8415 57.076 14.1869C56.8894 14.5229 56.796 14.9242 56.796 15.3909C56.796 15.8575 56.8894 16.2682 57.076 16.6229C57.272 16.9682 57.524 17.2342 57.832 17.4209C58.1494 17.6075 58.4854 17.7009 58.84 17.7009C59.204 17.7009 59.5447 17.6122 59.862 17.4349C60.1794 17.2482 60.4314 16.9869 60.618 16.6509C60.8047 16.3055 60.898 15.8949 60.898 15.4189ZM66.7463 8.93687V19.2969H64.7863V8.93687H66.7463Z" fill="#F5F5F5"/>
</g>
<defs>
<filter id="filter0_d_4100_6659" x="0" y="0.296875" width="84" height="37" filterUnits="userSpaceOnUse" color-interpolation-filters="sRGB">
<feFlood flood-opacity="0" result="BackgroundImageFix"/>
<feColorMatrix in="SourceAlpha" type="matrix" values="0 0 0 0 0 0 0 0 0 0 0 0 0 0 0 0 0 0 127 0" result="hardAlpha"/>
<feOffset dy="4"/>
<feGaussianBlur stdDeviation="2"/>
<feComposite in2="hardAlpha" operator="out"/>
<feColorMatrix type="matrix" values="0 0 0 0 0 0 0 0 0 0 0 0 0 0 0 0 0 0 0.15 0"/>
<feBlend mode="normal" in2="BackgroundImageFix" result="effect1_dropShadow_4100_6659"/>
<feBlend mode="normal" in="SourceGraphic" in2="effect1_dropShadow_4100_6659" result="shape"/>
</filter>
</defs>
</svg>
