<svg width="26" height="24" viewBox="0 0 26 24" fill="none" xmlns="http://www.w3.org/2000/svg">
<path d="M21.6667 22V19C21.6667 16.172 21.6667 14.757 20.7145 13.879C19.7633 13 18.2304 13 15.1667 13L13 15L10.8334 13C7.76971 13 6.23679 13 5.28562 13.879C4.33337 14.757 4.33337 16.172 4.33337 19V22M17.3334 13V18.5" stroke="#051721" stroke-width="1.7" stroke-linecap="round" stroke-linejoin="round"/>
<path d="M9.75004 13.8213V17.8213M9.75004 17.8213C10.3247 17.8213 10.8758 18.032 11.2821 18.4071C11.6884 18.7821 11.9167 19.2909 11.9167 19.8213V20.8213M9.75004 17.8213C9.1754 17.8213 8.6243 18.032 8.21798 18.4071C7.81165 18.7821 7.58337 19.2909 7.58337 19.8213V20.8213M17.3334 7.32129V6.32129C17.3334 5.86166 17.2353 5.40654 17.0448 4.9819C16.8542 4.55726 16.5749 4.17142 16.2228 3.84642C15.8707 3.52141 15.4527 3.2636 14.9927 3.08771C14.5327 2.91182 14.0396 2.82129 13.5417 2.82129C13.0438 2.82129 12.5507 2.91182 12.0907 3.08771C11.6307 3.2636 11.2127 3.52141 10.8606 3.84642C10.5085 4.17142 10.2292 4.55726 10.0387 4.9819C9.84811 5.40654 9.75004 5.86166 9.75004 6.32129V7.32129C9.75004 7.78092 9.84811 8.23604 10.0387 8.66068C10.2292 9.08532 10.5085 9.47116 10.8606 9.79616C11.2127 10.1212 11.6307 10.379 12.0907 10.5549C12.5507 10.7308 13.0438 10.8213 13.5417 10.8213C14.0396 10.8213 14.5327 10.7308 14.9927 10.5549C15.4527 10.379 15.8707 10.1212 16.2228 9.79616C16.5749 9.47116 16.8542 9.08532 17.0448 8.66068C17.2353 8.23604 17.3334 7.78092 17.3334 7.32129ZM18.6875 20.0713C18.6875 20.2702 18.6019 20.461 18.4496 20.6016C18.2972 20.7423 18.0905 20.8213 17.875 20.8213C17.6596 20.8213 17.4529 20.7423 17.3005 20.6016C17.1481 20.461 17.0625 20.2702 17.0625 20.0713C17.0625 19.8724 17.1481 19.6816 17.3005 19.541C17.4529 19.4003 17.6596 19.3213 17.875 19.3213C18.0905 19.3213 18.2972 19.4003 18.4496 19.541C18.6019 19.6816 18.6875 19.8724 18.6875 20.0713Z" stroke="#051721" stroke-width="1.7" stroke-linecap="round" stroke-linejoin="round"/>
</svg>
