<svg width="26" height="25" viewBox="0 0 26 25" fill="none" xmlns="http://www.w3.org/2000/svg">
<path d="M21.6667 22.1191V19.1191C21.6667 16.2911 21.6667 14.8761 20.7144 13.9981C19.7632 13.1191 18.2303 13.1191 15.1667 13.1191L13 15.1191L10.8333 13.1191C7.76967 13.1191 6.23675 13.1191 5.28558 13.9981C4.33333 14.8761 4.33333 16.2911 4.33333 19.1191V22.1191M17.3333 13.1191V18.6191" stroke="#E1EBF3" stroke-width="1.7" stroke-linecap="round" stroke-linejoin="round"/>
<path d="M9.75 13.9404V17.9404M9.75 17.9404C10.3246 17.9404 10.8757 18.1511 11.2821 18.5262C11.6884 18.9013 11.9167 19.41 11.9167 19.9404V20.9404M9.75 17.9404C9.17536 17.9404 8.62426 18.1511 8.21794 18.5262C7.81161 18.9013 7.58333 19.41 7.58333 19.9404V20.9404M17.3333 7.44043V6.44043C17.3333 5.9808 17.2353 5.52568 17.0447 5.10104C16.8542 4.6764 16.5749 4.29056 16.2228 3.96556C15.8707 3.64055 15.4527 3.38274 14.9927 3.20685C14.5326 3.03096 14.0396 2.94043 13.5417 2.94043C13.0437 2.94043 12.5507 3.03096 12.0907 3.20685C11.6306 3.38274 11.2126 3.64055 10.8606 3.96556C10.5085 4.29056 10.2292 4.6764 10.0386 5.10104C9.84807 5.52568 9.75 5.9808 9.75 6.44043V7.44043C9.75 7.90006 9.84807 8.35518 10.0386 8.77982C10.2292 9.20446 10.5085 9.5903 10.8606 9.9153C11.2126 10.2403 11.6306 10.4981 12.0907 10.674C12.5507 10.8499 13.0437 10.9404 13.5417 10.9404C14.0396 10.9404 14.5326 10.8499 14.9927 10.674C15.4527 10.4981 15.8707 10.2403 16.2228 9.9153C16.5749 9.5903 16.8542 9.20446 17.0447 8.77982C17.2353 8.35518 17.3333 7.90006 17.3333 7.44043ZM18.6875 20.1904C18.6875 20.3893 18.6019 20.5801 18.4495 20.7208C18.2972 20.8614 18.0905 20.9404 17.875 20.9404C17.6595 20.9404 17.4528 20.8614 17.3005 20.7208C17.1481 20.5801 17.0625 20.3893 17.0625 20.1904C17.0625 19.9915 17.1481 19.8008 17.3005 19.6601C17.4528 19.5194 17.6595 19.4404 17.875 19.4404C18.0905 19.4404 18.2972 19.5194 18.4495 19.6601C18.6019 19.8008 18.6875 19.9915 18.6875 20.1904Z" stroke="#E1EBF3" stroke-width="1.7" stroke-linecap="round" stroke-linejoin="round"/>
</svg>
