<svg width="24" height="25" viewBox="0 0 24 25" fill="none" xmlns="http://www.w3.org/2000/svg">
<path d="M12 9.29688C12.7956 9.29688 13.5587 9.61295 14.1213 10.1756C14.6839 10.7382 15 11.5012 15 12.2969C15 13.0925 14.6839 13.8556 14.1213 14.4182C13.5587 14.9808 12.7956 15.2969 12 15.2969C11.2044 15.2969 10.4413 14.9808 9.87868 14.4182C9.31607 13.8556 9 13.0925 9 12.2969C9 11.5012 9.31607 10.7382 9.87868 10.1756C10.4413 9.61295 11.2044 9.29688 12 9.29688ZM12 4.79688C17 4.79688 21.27 7.90688 23 12.2969C21.27 16.6869 17 19.7969 12 19.7969C7 19.7969 2.73 16.6869 1 12.2969C2.73 7.90688 7 4.79688 12 4.79688ZM3.18 12.2969C3.98825 13.9472 5.24331 15.3376 6.80248 16.3101C8.36165 17.2826 10.1624 17.7982 12 17.7982C13.8376 17.7982 15.6383 17.2826 17.1975 16.3101C18.7567 15.3376 20.0117 13.9472 20.82 12.2969C20.0117 10.6466 18.7567 9.25613 17.1975 8.28362C15.6383 7.31111 13.8376 6.79556 12 6.79556C10.1624 6.79556 8.36165 7.31111 6.80248 8.28362C5.24331 9.25613 3.98825 10.6466 3.18 12.2969Z" fill="#0D425D"/>
</svg>
