<svg width="44" height="43" viewBox="0 0 44 43" fill="none" xmlns="http://www.w3.org/2000/svg">
<circle cx="22.0049" cy="21.5" r="21.5" fill="#0D425D"/>
<path d="M16.4391 27.7981L18.8818 27.0935L33.5891 12.21C33.7051 12.0911 33.7697 11.9313 33.769 11.7652C33.7682 11.5991 33.7021 11.44 33.585 11.3222L32.7042 10.4317C32.6473 10.3732 32.5793 10.3266 32.5042 10.2947C32.429 10.2628 32.3483 10.2462 32.2667 10.2458C32.1851 10.2454 32.1042 10.2613 32.0288 10.2925C31.9534 10.3237 31.885 10.3696 31.8275 10.4275L17.159 25.2722L16.4391 27.7981ZM34.4478 8.66731L35.3286 9.55921C36.5437 10.7896 36.5548 12.7745 35.3508 13.9924L20.1953 29.3309L14.9743 30.8345C14.8165 30.8789 14.6514 30.8917 14.4886 30.8723C14.3258 30.8529 14.1684 30.8016 14.0255 30.7213C13.8825 30.6411 13.7567 30.5335 13.6554 30.4046C13.554 30.2757 13.479 30.1282 13.4346 29.9703C13.3666 29.7415 13.3656 29.4979 13.4319 29.2685L14.9507 23.942L30.0659 8.64373C30.3533 8.35432 30.6955 8.12504 31.0725 7.96925C31.4494 7.81347 31.8536 7.7343 32.2615 7.73637C32.6694 7.73843 33.0727 7.82169 33.4481 7.98129C33.8235 8.14088 34.1633 8.375 34.4478 8.66731ZM18.4698 10.2666C19.1578 10.2666 19.7154 10.8312 19.7154 11.5275C19.7165 11.6921 19.6851 11.8553 19.6231 12.0078C19.5611 12.1603 19.4696 12.299 19.3539 12.4161C19.2383 12.5332 19.1006 12.6264 18.9489 12.6902C18.7972 12.7541 18.6344 12.7875 18.4698 12.7884H13.4873C12.1113 12.7884 10.9961 13.9175 10.9961 15.3087V30.4364C10.9961 31.8291 12.1113 32.9581 13.4873 32.9581H28.4347C29.8107 32.9581 30.9273 31.8291 30.9273 30.4364V25.3943C30.9273 24.698 31.4849 24.1334 32.1729 24.1334C32.8609 24.1334 33.4185 24.698 33.4185 25.3957V30.4364C33.4185 33.2217 31.1867 35.4799 28.4347 35.4799H13.4873C10.7353 35.4799 8.50488 33.2217 8.50488 30.4364V15.3087C8.50488 12.5248 10.7353 10.2666 13.4873 10.2666H18.4698Z" fill="#F5F9FB"/>
</svg>
