<svg width="44" height="43" viewBox="0 0 44 43" fill="none" xmlns="http://www.w3.org/2000/svg">
<circle cx="22.0049" cy="21.5" r="21.5" fill="#0D425D"/>
<g clip-path="url(#clip0_4123_7124)">
<path d="M36.8583 32.0469L32.2643 36.6904L30.9642 35.3721L33.3189 32.9844H24.4488V31.1094H33.3189L30.9642 28.7217L32.2643 27.4033L36.8583 32.0469ZM27.8437 34.8594L29.6929 36.7344H11.5049V10.4844H18.9014C18.9014 9.9668 18.9977 9.4834 19.1904 9.03418C19.383 8.58496 19.6478 8.18457 19.9849 7.83301C20.322 7.48145 20.712 7.21289 21.1551 7.02734C21.5981 6.8418 22.0796 6.74414 22.5997 6.73438C23.1101 6.73438 23.5869 6.83203 24.0299 7.02734C24.4729 7.22266 24.8678 7.49121 25.2145 7.83301C25.5612 8.1748 25.8261 8.57031 26.0091 9.01953C26.192 9.46875 26.2884 9.95703 26.298 10.4844H33.6945V26.2021L31.8454 24.3271V12.3594H29.9963V16.1094H15.2032V12.3594H13.354V34.8594H27.8437ZM17.0523 12.3594V14.2344H28.1471V12.3594H24.4488V10.4844C24.4488 10.2207 24.4007 9.97656 24.3044 9.75195C24.2081 9.52734 24.0781 9.33203 23.9143 9.16602C23.7506 9 23.5532 8.86328 23.322 8.75586C23.0909 8.64844 22.8501 8.59961 22.5997 8.60938C22.3397 8.60938 22.0989 8.6582 21.8774 8.75586C21.6559 8.85352 21.4633 8.98535 21.2995 9.15137C21.1358 9.31738 21.001 9.51758 20.895 9.75195C20.7891 9.98633 20.7409 10.2305 20.7506 10.4844V12.3594H17.0523Z" fill="#F5F9FB"/>
</g>
<defs>
<clipPath id="clip0_4123_7124">
<rect width="26" height="30" fill="white" transform="translate(11.5049 6.73438)"/>
</clipPath>
</defs>
</svg>
