<svg width="44" height="43" viewBox="0 0 44 43" fill="none" xmlns="http://www.w3.org/2000/svg">
<circle cx="21.9956" cy="21.5" r="21.5" fill="#0D425D"/>
<g clip-path="url(#clip0_4123_7148)">
<path d="M22.4956 8.73438C15.4206 8.73438 9.49561 13.8144 9.49561 20.2344C9.49561 23.2644 10.8546 25.9824 12.9956 28.0154C12.7353 28.6957 12.3658 29.329 11.9016 29.8904C11.2864 30.6366 10.6068 31.3272 9.87061 31.9544C9.70912 32.0839 9.59183 32.2604 9.53491 32.4595C9.478 32.6585 9.48427 32.8703 9.55286 33.0657C9.62145 33.261 9.74897 33.4302 9.91783 33.55C10.0867 33.6698 10.2886 33.7342 10.4956 33.7344C12.7106 33.7344 14.3036 33.7094 15.7456 33.3284C17.0356 32.9864 18.1446 32.2704 19.2766 31.2654C20.3066 31.5124 21.3696 31.7344 22.4956 31.7344C29.5706 31.7344 35.4956 26.6544 35.4956 20.2344C35.4956 13.8144 29.5706 8.73438 22.4956 8.73438ZM22.4956 10.7344C28.6206 10.7344 33.4956 15.0544 33.4956 20.2344C33.4956 25.4144 28.6206 29.7344 22.4956 29.7344C21.4066 29.7344 20.2756 29.5464 19.2456 29.2654C19.0809 29.224 18.9083 29.2252 18.7442 29.2689C18.5801 29.3127 18.4299 29.3975 18.3076 29.5154C17.1826 30.5944 16.3536 31.0974 15.2456 31.3904C14.7356 31.5254 13.7516 31.4934 13.0576 31.5474C13.1976 31.3894 13.3286 31.3054 13.4646 31.1404C14.2506 30.1804 14.9676 29.1654 15.1836 28.0154C15.2134 27.8427 15.1972 27.6653 15.1369 27.5009C15.0765 27.3364 14.974 27.1907 14.8396 27.0784C12.7446 25.3484 11.4956 22.9234 11.4956 20.2344C11.4956 15.0544 16.3706 10.7344 22.4956 10.7344ZM20.5896 14.6404C20.4136 14.6799 20.2515 14.7663 20.1206 14.8904L18.6206 16.2974L19.9646 17.7654L21.1516 16.6404H23.5576L24.4956 17.7044V19.1734L21.9326 20.8914C21.7956 20.9847 21.6839 21.1105 21.6077 21.2577C21.5314 21.4048 21.4929 21.5687 21.4956 21.7344V23.7344H23.4956V22.2964L26.0586 20.5784C26.1957 20.485 26.3075 20.3589 26.3838 20.2116C26.4601 20.0643 26.4985 19.9003 26.4956 19.7344V17.3284C26.4943 17.0867 26.4055 16.8536 26.2456 16.6724L24.7456 14.9844C24.6523 14.877 24.5371 14.7907 24.4077 14.7314C24.2784 14.6721 24.1379 14.6411 23.9956 14.6404H20.8076C20.7352 14.6324 20.6621 14.6324 20.5896 14.6404ZM21.4956 24.7344V26.7344H23.4956V24.7344H21.4956Z" fill="#F5F9FB"/>
</g>
<defs>
<clipPath id="clip0_4123_7148">
<rect width="26" height="26" fill="white" transform="translate(9.49561 8.73438)"/>
</clipPath>
</defs>
</svg>
