<svg width="44" height="43" viewBox="0 0 44 43" fill="none" xmlns="http://www.w3.org/2000/svg">
<circle cx="22.0049" cy="21.5" r="21.5" fill="#0D425D"/>
<g clip-path="url(#clip0_4123_7138)">
<path d="M20.4208 7.73438C20.1779 7.73438 19.9449 7.83186 19.7731 8.00539C19.6014 8.17891 19.5049 8.41426 19.5049 8.65966V29.8091C19.5049 30.0545 19.6014 30.2898 19.7731 30.4634C19.9449 30.6369 20.1779 30.7344 20.4208 30.7344C20.6637 30.7344 20.8966 30.6369 21.0684 30.4634C21.2402 30.2898 21.3367 30.0545 21.3367 29.8091V20.1597C25.7907 19.3938 28.2435 19.3549 32.589 20.1597C32.8319 20.1597 33.0649 20.0622 33.2366 19.8887C33.4084 19.7151 33.5049 19.4798 33.5049 19.2344V8.65966C33.5049 8.41426 33.4084 8.17891 33.2366 8.00539C33.0649 7.83186 32.8319 7.73438 32.589 7.73438C28.2815 8.58083 25.6242 8.51559 20.5516 7.73438C20.5294 7.73454 20.5073 7.73543 20.4851 7.73702C20.4637 7.73547 20.4423 7.73459 20.4208 7.73438ZM24.032 9.58495H26.5965V11.5492H29.161V9.58495H31.6731V11.5492H29.161V14.1397H31.6731V16.7305H29.161V18.3091H26.5965V16.7308H24.032V18.3091H21.4675V16.7308H24.032V14.1397H21.4675V11.5489H24.032V9.58495ZM24.032 11.5489V14.1397H26.5965V11.5492L24.032 11.5489ZM26.5965 14.1397V16.7308L29.161 16.7305V14.1397H26.5965Z" fill="#F5F9FB"/>
<path d="M16.8063 27.6738C13.0984 28.1981 10.5049 29.4518 10.5049 31.2967C10.5049 33.7817 14.8382 35.7966 21.0049 35.7966C27.1715 35.7966 31.5049 33.782 31.5049 31.2967C31.5049 29.4515 28.9114 28.1981 25.2038 27.6742L24.69 28.5488C27.4848 28.9363 29.4049 29.7514 29.4049 30.6968C29.4049 32.0222 25.6441 33.0967 21.0049 33.0967C16.3656 33.0967 12.6049 32.0222 12.6049 30.6968C12.6045 29.7546 14.5124 28.9405 17.3155 28.5513L16.8063 27.6738Z" fill="#F5F9FB"/>
</g>
<defs>
<clipPath id="clip0_4123_7138">
<rect width="23" height="28" fill="white" transform="translate(10.5049 7.73438)"/>
</clipPath>
</defs>
</svg>
