<svg width="44" height="43" viewBox="0 0 44 43" fill="none" xmlns="http://www.w3.org/2000/svg">
<circle cx="21.9956" cy="21.5" r="21.5" fill="#0D425D"/>
<path d="M17.9795 20.2577L22.1407 24.4189L33.2374 13.3223" stroke="#F5F9FB" stroke-width="2.5" stroke-linecap="round" stroke-linejoin="round"/>
<path d="M33.2373 21.6449C33.2366 24.0024 32.4851 26.2984 31.0917 28.2001C29.6983 30.1018 27.7355 31.5103 25.4878 32.2214C23.2401 32.9325 20.8243 32.9093 18.5907 32.1551C16.3571 31.4009 14.4217 29.955 13.0651 28.0268C11.7086 26.0987 11.0013 23.7887 11.0459 21.4316C11.0905 19.0745 11.8847 16.7929 13.3132 14.9175C14.7418 13.0421 16.7305 11.6704 18.9911 11.0013C21.2516 10.3321 23.6666 10.4004 25.8857 11.196" stroke="#F5F9FB" stroke-width="2.5" stroke-linecap="round" stroke-linejoin="round"/>
</svg>
