<?xml version="1.0" standalone="no"?>
<!DOCTYPE svg PUBLIC "-//W3C//DTD SVG 20010904//EN"
 "http://www.w3.org/TR/2001/REC-SVG-20010904/DTD/svg10.dtd">
<svg version="1.0" xmlns="http://www.w3.org/2000/svg"
 width="1280.000000pt" height="1333.000000pt" viewBox="0 0 1280.000000 1333.000000"
 preserveAspectRatio="xMidYMid meet">
<metadata>
Created by potrace 1.16, written by Peter Selinger 2001-2019
</metadata>
<g transform="translate(0.000000,1333.000000) scale(0.100000,-0.100000)"
fill="#000000" stroke="none">
<path d="M5356 10545 c-142 -36 -73 27 -1556 -1446 -2029 -2018 -1972 -1959
-2014 -2048 -46 -95 -59 -165 -54 -271 6 -97 29 -172 78 -254 25 -41 493 -513
1695 -1710 l1661 -1653 84 -42 c315 -155 679 12 766 352 21 78 14 219 -13 298
-43 127 -40 124 -1256 1333 l-1168 1161 3393 5 3393 5 66 22 c174 60 319 215
358 383 16 69 13 219 -5 281 -51 170 -174 299 -344 361 l-65 23 -3399 5 -3399
5 1180 1175 c1161 1155 1181 1176 1216 1250 20 41 41 103 48 138 15 82 6 210
-20 287 -52 147 -178 273 -327 326 -78 28 -235 35 -318 14z"/>
</g>
</svg>
