<svg width="188" height="154" viewBox="0 0 188 154" fill="none" xmlns="http://www.w3.org/2000/svg">
<path d="M97.6065 0C97.6333 0 97.6602 0 97.687 0C114.255 0.514102 127.648 6.8845 137.819 19.6476C144.652 28.2197 143.918 39.2372 136.196 47.0404C135.315 47.93 134.49 48.8867 133.53 49.6779C132.448 50.5698 132.667 51.2024 133.566 52.083C136.294 54.7497 139.107 57.3872 140.524 61.0575C143.657 69.1669 142.709 76.7197 136.898 83.3069C122.818 99.262 105.247 105.065 84.625 99.8789C57.7206 93.1151 41.6155 65.5212 48.3411 38.6292C53.459 18.1635 70.5903 3.00638 91.5897 0.413518C93.6825 0.154232 95.8021 0.118466 97.6065 0.002234V0ZM127.395 57.0832C127.075 56.7748 126.57 56.7658 126.244 57.0676C125.917 57.3694 125.609 57.6555 125.325 57.9393C120.269 62.9708 115.221 68.009 110.161 73.0383C102.872 80.2871 93.0654 82.1469 83.7217 77.8977C72.0593 72.5935 69.336 60.5948 74.2617 51.7969C74.5814 51.2247 74.3667 50.1339 74.0425 49.4566C70.7491 42.552 71.1247 35.9089 75.8312 29.8604C84.0749 19.2654 100.392 18.7692 110.237 28.6377C114.391 32.802 118.541 36.9707 122.736 41.0947C124.097 42.4313 125.638 44.6621 127.02 44.6062C128.475 44.5459 129.908 42.3062 131.225 40.9002C135.612 36.2196 136.001 29.7889 131.99 24.8222C121.271 11.5427 107.371 5.86747 90.4807 8.46704C67.6748 11.9786 51.5205 34.3554 55.0107 57.0922C58.0761 77.0639 74.3198 91.2487 91.0911 93.3744C107.918 95.5068 121.631 90.0931 132.129 76.7622C134.55 73.6865 135.062 70.1057 134.197 66.2678C133.287 62.222 130.266 59.8527 127.391 57.0832H127.395ZM85.2533 50.201C85.6915 50.5385 85.687 51.2001 85.2465 51.5309C84.2136 52.311 83.44 52.852 82.7804 53.5114C78.3287 57.9639 78.5948 64.4237 83.3505 68.5723C89.5551 73.986 98.3913 73.7022 104.401 67.7967C109.75 62.5394 115.008 57.1928 120.301 51.8774C120.462 51.7142 120.6 51.5287 120.73 51.3409C120.931 51.0526 120.949 50.6614 120.734 50.3843C120.719 50.3641 120.701 50.344 120.683 50.3262C114.993 44.6107 109.425 38.7678 103.567 33.2311C97.9531 27.9247 89.1929 28.0521 83.3706 33.1618C78.6663 37.2925 78.3511 43.5713 82.6797 48.0887C83.3617 48.7995 84.18 49.3784 85.2533 50.2032V50.201Z" fill="#E1EBF3"/>
<path d="M1.29359 128.503C1.29359 126.215 1.78859 124.18 2.77859 122.398C3.76859 120.594 5.14359 119.197 6.90359 118.207C8.68559 117.195 10.6986 116.689 12.9426 116.689C15.6926 116.689 18.0466 117.415 20.0046 118.867C21.9626 120.319 23.2716 122.299 23.9316 124.807H17.7276C17.2656 123.839 16.6056 123.102 15.7476 122.596C14.9116 122.09 13.9546 121.837 12.8766 121.837C11.1386 121.837 9.73059 122.442 8.65259 123.652C7.57459 124.862 7.03559 126.479 7.03559 128.503C7.03559 130.527 7.57459 132.144 8.65259 133.354C9.73059 134.564 11.1386 135.169 12.8766 135.169C13.9546 135.169 14.9116 134.916 15.7476 134.41C16.6056 133.904 17.2656 133.167 17.7276 132.199H23.9316C23.2716 134.707 21.9626 136.687 20.0046 138.139C18.0466 139.569 15.6926 140.284 12.9426 140.284C10.6986 140.284 8.68559 139.789 6.90359 138.799C5.14359 137.787 3.76859 136.39 2.77859 134.608C1.78859 132.826 1.29359 130.791 1.29359 128.503ZM35.7693 140.383C33.9653 140.383 32.3373 139.998 30.8853 139.228C29.4553 138.458 28.3223 137.358 27.4863 135.928C26.6723 134.498 26.2653 132.826 26.2653 130.912C26.2653 129.02 26.6833 127.359 27.5193 125.929C28.3553 124.477 29.4993 123.366 30.9513 122.596C32.4033 121.826 34.0313 121.441 35.8353 121.441C37.6393 121.441 39.2673 121.826 40.7193 122.596C42.1713 123.366 43.3153 124.477 44.1513 125.929C44.9873 127.359 45.4053 129.02 45.4053 130.912C45.4053 132.804 44.9763 134.476 44.1183 135.928C43.2823 137.358 42.1273 138.458 40.6533 139.228C39.2013 139.998 37.5733 140.383 35.7693 140.383ZM35.7693 135.499C36.8473 135.499 37.7603 135.103 38.5083 134.311C39.2783 133.519 39.6633 132.386 39.6633 130.912C39.6633 129.438 39.2893 128.305 38.5413 127.513C37.8153 126.721 36.9133 126.325 35.8353 126.325C34.7353 126.325 33.8223 126.721 33.0963 127.513C32.3703 128.283 32.0073 129.416 32.0073 130.912C32.0073 132.386 32.3593 133.519 33.0633 134.311C33.7893 135.103 34.6913 135.499 35.7693 135.499ZM47.277 130.879C47.277 128.987 47.629 127.326 48.333 125.896C49.059 124.466 50.038 123.366 51.27 122.596C52.502 121.826 53.877 121.441 55.395 121.441C56.605 121.441 57.705 121.694 58.695 122.2C59.707 122.706 60.499 123.388 61.071 124.246V115.699H66.714V140.119H61.071V137.479C60.543 138.359 59.784 139.063 58.794 139.591C57.826 140.119 56.693 140.383 55.395 140.383C53.877 140.383 52.502 139.998 51.27 139.228C50.038 138.436 49.059 137.325 48.333 135.895C47.629 134.443 47.277 132.771 47.277 130.879ZM61.071 130.912C61.071 129.504 60.675 128.393 59.883 127.579C59.113 126.765 58.167 126.358 57.045 126.358C55.923 126.358 54.966 126.765 54.174 127.579C53.404 128.371 53.019 129.471 53.019 130.879C53.019 132.287 53.404 133.409 54.174 134.245C54.966 135.059 55.923 135.466 57.045 135.466C58.167 135.466 59.113 135.059 59.883 134.245C60.675 133.431 61.071 132.32 61.071 130.912ZM88.1545 130.615C88.1545 131.143 88.1215 131.693 88.0555 132.265H75.2845C75.3725 133.409 75.7355 134.289 76.3735 134.905C77.0335 135.499 77.8365 135.796 78.7825 135.796C80.1905 135.796 81.1695 135.202 81.7195 134.014H87.7255C87.4175 135.224 86.8565 136.313 86.0425 137.281C85.2505 138.249 84.2495 139.008 83.0395 139.558C81.8295 140.108 80.4765 140.383 78.9805 140.383C77.1765 140.383 75.5705 139.998 74.1625 139.228C72.7545 138.458 71.6545 137.358 70.8625 135.928C70.0705 134.498 69.6745 132.826 69.6745 130.912C69.6745 128.998 70.0595 127.326 70.8295 125.896C71.6215 124.466 72.7215 123.366 74.1295 122.596C75.5375 121.826 77.1545 121.441 78.9805 121.441C80.7625 121.441 82.3465 121.815 83.7325 122.563C85.1185 123.311 86.1965 124.378 86.9665 125.764C87.7585 127.15 88.1545 128.767 88.1545 130.615ZM82.3795 129.13C82.3795 128.162 82.0495 127.392 81.3895 126.82C80.7295 126.248 79.9045 125.962 78.9145 125.962C77.9685 125.962 77.1655 126.237 76.5055 126.787C75.8675 127.337 75.4715 128.118 75.3175 129.13H82.3795ZM97.1676 128.503C97.1676 126.215 97.6626 124.18 98.6526 122.398C99.6426 120.594 101.018 119.197 102.778 118.207C104.56 117.195 106.573 116.689 108.817 116.689C111.567 116.689 113.921 117.415 115.879 118.867C117.837 120.319 119.146 122.299 119.806 124.807H113.602C113.14 123.839 112.48 123.102 111.622 122.596C110.786 122.09 109.829 121.837 108.751 121.837C107.013 121.837 105.605 122.442 104.527 123.652C103.449 124.862 102.91 126.479 102.91 128.503C102.91 130.527 103.449 132.144 104.527 133.354C105.605 134.564 107.013 135.169 108.751 135.169C109.829 135.169 110.786 134.916 111.622 134.41C112.48 133.904 113.14 133.167 113.602 132.199H119.806C119.146 134.707 117.837 136.687 115.879 138.139C113.921 139.569 111.567 140.284 108.817 140.284C106.573 140.284 104.56 139.789 102.778 138.799C101.018 137.787 99.6426 136.39 98.6526 134.608C97.6626 132.826 97.1676 130.791 97.1676 128.503ZM128.904 115.699V140.119H123.261V115.699H128.904ZM150.352 130.615C150.352 131.143 150.319 131.693 150.253 132.265H137.482C137.57 133.409 137.933 134.289 138.571 134.905C139.231 135.499 140.034 135.796 140.98 135.796C142.388 135.796 143.367 135.202 143.917 134.014H149.923C149.615 135.224 149.054 136.313 148.24 137.281C147.448 138.249 146.447 139.008 145.237 139.558C144.027 140.108 142.674 140.383 141.178 140.383C139.374 140.383 137.768 139.998 136.36 139.228C134.952 138.458 133.852 137.358 133.06 135.928C132.268 134.498 131.872 132.826 131.872 130.912C131.872 128.998 132.257 127.326 133.027 125.896C133.819 124.466 134.919 123.366 136.327 122.596C137.735 121.826 139.352 121.441 141.178 121.441C142.96 121.441 144.544 121.815 145.93 122.563C147.316 123.311 148.394 124.378 149.164 125.764C149.956 127.15 150.352 128.767 150.352 130.615ZM144.577 129.13C144.577 128.162 144.247 127.392 143.587 126.82C142.927 126.248 142.102 125.962 141.112 125.962C140.166 125.962 139.363 126.237 138.703 126.787C138.065 127.337 137.669 128.118 137.515 129.13H144.577ZM152.207 130.879C152.207 128.987 152.559 127.326 153.263 125.896C153.989 124.466 154.968 123.366 156.2 122.596C157.432 121.826 158.807 121.441 160.325 121.441C161.623 121.441 162.756 121.705 163.724 122.233C164.714 122.761 165.473 123.454 166.001 124.312V121.705H171.644V140.119H166.001V137.512C165.451 138.37 164.681 139.063 163.691 139.591C162.723 140.119 161.59 140.383 160.292 140.383C158.796 140.383 157.432 139.998 156.2 139.228C154.968 138.436 153.989 137.325 153.263 135.895C152.559 134.443 152.207 132.771 152.207 130.879ZM166.001 130.912C166.001 129.504 165.605 128.393 164.813 127.579C164.043 126.765 163.097 126.358 161.975 126.358C160.853 126.358 159.896 126.765 159.104 127.579C158.334 128.371 157.949 129.471 157.949 130.879C157.949 132.287 158.334 133.409 159.104 134.245C159.896 135.059 160.853 135.466 161.975 135.466C163.097 135.466 164.043 135.059 164.813 134.245C165.605 133.431 166.001 132.32 166.001 130.912ZM181.369 124.774C182.029 123.762 182.854 122.97 183.844 122.398C184.834 121.804 185.934 121.507 187.144 121.507V127.48H185.593C184.185 127.48 183.129 127.788 182.425 128.404C181.721 128.998 181.369 130.054 181.369 131.572V140.119H175.726V121.705H181.369V124.774Z" fill="#E1EBF3"/>
</svg>
