<?xml version="1.0" encoding="utf-8"?>
<!DOCTYPE svg PUBLIC "-//W3C//DTD SVG 1.0//EN" "http://www.w3.org/TR/2001/REC-SVG-20010904/DTD/svg10.dtd">
<svg version="1.0" xmlns="http://www.w3.org/2000/svg" width="551px" height="589px" viewBox="0 0 551 589" preserveAspectRatio="xMidYMid meet">
 <g fill="#0d425d">
  <path d="M281.2 587.9 c-32.9 -2 -68.2 -9.7 -97.6 -21.1 -52.7 -20.6 -99.1 -57.7 -131.5 -105.3 -55.4 -81.3 -66.8 -182.7 -30.9 -274.7 33.8 -86.8 109.9 -154.1 199.7 -176.8 48.1 -12.1 93.9 -12.1 144 0.1 49 12 92.9 36.3 129.5 71.9 40 38.8 55.8 68.9 55.9 106 0 19.3 -3.8 34.3 -13.4 53 -6.6 12.8 -12.9 20.9 -28.6 37.1 -10.5 10.7 -13.3 14.2 -13.3 16.3 0 2.1 2.8 5.6 12.8 16 16.1 16.8 22 24.5 28.2 37.1 11.7 24 16 54.2 11 78.4 -5.6 27.8 -19 48.6 -50.9 79.4 -61.9 59.6 -134.8 87.6 -214.9 82.6z m32.8 -44.9 c49.4 -3.7 90.5 -19.3 129 -49 11.4 -8.8 36 -33.2 45.4 -45 15.2 -19.2 20.1 -37.4 16.1 -60.4 -3.1 -17.9 -8.2 -26.3 -27.3 -45.8 -11.5 -11.7 -14 -13.8 -16.6 -13.8 -2.6 0 -9.5 6.5 -56 52.8 -44.8 44.6 -54.6 53.8 -62.4 59 -34.9 23.1 -73.7 28.6 -113 16.1 -42.5 -13.7 -71.1 -42.3 -81.3 -81.5 -2 -7.6 -2.3 -11.2 -2.3 -24.4 0.1 -13.3 0.5 -16.8 2.7 -25.2 1.4 -5.3 4.4 -13.6 6.6 -18.4 5.2 -10.9 5.3 -14.6 0.7 -25.1 -8.2 -18.7 -11.2 -33.9 -10.3 -51.7 0.7 -13.4 3.3 -23.9 9.1 -36.1 16.6 -34.7 50.5 -60 90.1 -67.2 11.9 -2.2 34.1 -2.2 46.1 0 19 3.4 36 10.3 52.8 21.3 9 5.9 15.9 12.5 60.9 57.5 56.6 56.6 54.8 55.2 62.8 50.8 2.7 -1.5 8.6 -7.3 15.6 -15.4 9 -10.3 12.4 -15.1 16.4 -23 13.6 -27.4 9.6 -53.6 -12.2 -80 -36.6 -44.3 -84 -75.1 -133.9 -86.9 -20.7 -4.9 -31.6 -6.1 -58 -6 -27.8 0.1 -43.5 1.9 -66.5 7.8 -75 19.3 -138.2 76.7 -167.5 151.8 -6.7 17.1 -11.6 35.7 -14.7 55.8 -2.5 16.1 -2.4 50.9 0.1 67.5 6 39.4 20.5 76.3 42.4 108 38.8 56 99.1 94.6 162.3 104 21.4 3.2 42.5 4 62.9 2.5z m-24 -125.9 c17.1 -4.6 28.4 -11.6 45.4 -27.9 6.7 -6.5 30 -29.8 51.9 -51.9 31.4 -31.7 39.7 -40.6 39.7 -42.6 0 -2 -10.1 -12.8 -49.1 -52.2 -27.1 -27.2 -52 -51.8 -55.4 -54.5 -8.5 -6.7 -19.3 -12.4 -30 -15.6 -7.9 -2.4 -10.7 -2.7 -23 -2.7 -17 0 -25.1 1.9 -40 9.2 -20.2 10 -33.4 24.7 -38.9 43 -2.1 7.2 -2.1 23 0 30.2 3.9 13.2 13.1 25.6 27.7 37.2 2.6 2.1 4.7 4.4 4.7 5.2 0 0.8 -2.1 3.1 -4.7 5.2 -8.6 6.8 -18.8 17.7 -22 23.3 -13.7 24.3 -9.1 52.5 11.6 72.3 13.2 12.6 29.4 20.4 50.1 24.1 5.6 1 24.8 -0.4 32 -2.3z"/>
 </g>
</svg>