<svg width="101" height="38" viewBox="0 0 101 38" fill="none" xmlns="http://www.w3.org/2000/svg">
<g filter="url(#filter0_d_4100_6699)">
<rect x="4" y="0.296875" width="93" height="29" rx="14.5" fill="#F28D0D" shape-rendering="crispEdges"/>
<path d="M27.6874 9.52487V19.2969H25.7274V12.9409L23.1094 19.2969H21.6254L18.9934 12.9409V19.2969H17.0334V9.52487H19.2594L22.3674 16.7909L25.4754 9.52487H27.6874ZM33.0692 19.4229C32.3225 19.4229 31.6505 19.2595 31.0532 18.9329C30.4558 18.5969 29.9845 18.1255 29.6392 17.5189C29.3032 16.9122 29.1352 16.2122 29.1352 15.4189C29.1352 14.6255 29.3078 13.9255 29.6532 13.3189C30.0078 12.7122 30.4885 12.2455 31.0952 11.9189C31.7018 11.5829 32.3785 11.4149 33.1252 11.4149C33.8718 11.4149 34.5485 11.5829 35.1552 11.9189C35.7618 12.2455 36.2378 12.7122 36.5832 13.3189C36.9378 13.9255 37.1152 14.6255 37.1152 15.4189C37.1152 16.2122 36.9332 16.9122 36.5692 17.5189C36.2145 18.1255 35.7292 18.5969 35.1132 18.9329C34.5065 19.2595 33.8252 19.4229 33.0692 19.4229ZM33.0692 17.7149C33.4238 17.7149 33.7552 17.6309 34.0632 17.4629C34.3805 17.2855 34.6325 17.0242 34.8192 16.6789C35.0058 16.3335 35.0992 15.9135 35.0992 15.4189C35.0992 14.6815 34.9032 14.1169 34.5112 13.7249C34.1285 13.3235 33.6572 13.1229 33.0972 13.1229C32.5372 13.1229 32.0658 13.3235 31.6832 13.7249C31.3098 14.1169 31.1232 14.6815 31.1232 15.4189C31.1232 16.1562 31.3052 16.7255 31.6692 17.1269C32.0425 17.5189 32.5092 17.7149 33.0692 17.7149ZM38.0489 15.3909C38.0489 14.6069 38.2029 13.9115 38.5109 13.3049C38.8282 12.6982 39.2576 12.2315 39.7989 11.9049C40.3402 11.5782 40.9422 11.4149 41.6049 11.4149C42.1089 11.4149 42.5896 11.5269 43.0469 11.7509C43.5042 11.9655 43.8682 12.2549 44.1389 12.6189V8.93687H46.1269V19.2969H44.1389V18.1489C43.8962 18.5315 43.5556 18.8395 43.1169 19.0729C42.6782 19.3062 42.1696 19.4229 41.5909 19.4229C40.9376 19.4229 40.3402 19.2549 39.7989 18.9189C39.2576 18.5829 38.8282 18.1115 38.5109 17.5049C38.2029 16.8889 38.0489 16.1842 38.0489 15.3909ZM44.1529 15.4189C44.1529 14.9429 44.0596 14.5369 43.8729 14.2009C43.6862 13.8555 43.4342 13.5942 43.1169 13.4169C42.7996 13.2302 42.4589 13.1369 42.0949 13.1369C41.7309 13.1369 41.3949 13.2255 41.0869 13.4029C40.7789 13.5802 40.5269 13.8415 40.3309 14.1869C40.1442 14.5229 40.0509 14.9242 40.0509 15.3909C40.0509 15.8575 40.1442 16.2682 40.3309 16.6229C40.5269 16.9682 40.7789 17.2342 41.0869 17.4209C41.4042 17.6075 41.7402 17.7009 42.0949 17.7009C42.4589 17.7009 42.7996 17.6122 43.1169 17.4349C43.4342 17.2482 43.6862 16.9869 43.8729 16.6509C44.0596 16.3055 44.1529 15.8949 44.1529 15.4189ZM55.2512 15.2509C55.2512 15.5309 55.2325 15.7829 55.1952 16.0069H49.5252C49.5719 16.5669 49.7679 17.0055 50.1132 17.3229C50.4585 17.6402 50.8832 17.7989 51.3872 17.7989C52.1152 17.7989 52.6332 17.4862 52.9412 16.8609H55.0552C54.8312 17.6075 54.4019 18.2235 53.7672 18.7089C53.1325 19.1849 52.3532 19.4229 51.4292 19.4229C50.6825 19.4229 50.0105 19.2595 49.4132 18.9329C48.8252 18.5969 48.3632 18.1255 48.0272 17.5189C47.7005 16.9122 47.5372 16.2122 47.5372 15.4189C47.5372 14.6162 47.7005 13.9115 48.0272 13.3049C48.3539 12.6982 48.8112 12.2315 49.3992 11.9049C49.9872 11.5782 50.6639 11.4149 51.4292 11.4149C52.1665 11.4149 52.8245 11.5735 53.4032 11.8909C53.9912 12.2082 54.4439 12.6609 54.7612 13.2489C55.0879 13.8275 55.2512 14.4949 55.2512 15.2509ZM53.2212 14.6909C53.2119 14.1869 53.0299 13.7855 52.6752 13.4869C52.3205 13.1789 51.8865 13.0249 51.3732 13.0249C50.8879 13.0249 50.4772 13.1742 50.1412 13.4729C49.8145 13.7622 49.6139 14.1682 49.5392 14.6909H53.2212ZM58.6418 12.7449C58.8938 12.3342 59.2205 12.0122 59.6218 11.7789C60.0325 11.5455 60.4992 11.4289 61.0218 11.4289V13.4869H60.5038C59.8878 13.4869 59.4212 13.6315 59.1038 13.9209C58.7958 14.2102 58.6418 14.7142 58.6418 15.4329V19.2969H56.6818V11.5409H58.6418V12.7449ZM61.838 15.3909C61.838 14.6069 61.992 13.9115 62.3 13.3049C62.6173 12.6982 63.042 12.2315 63.574 11.9049C64.1153 11.5782 64.7173 11.4149 65.38 11.4149C65.9586 11.4149 66.4626 11.5315 66.892 11.7649C67.3306 11.9982 67.6806 12.2922 67.942 12.6469V11.5409H69.916V19.2969H67.942V18.1629C67.69 18.5269 67.34 18.8302 66.892 19.0729C66.4533 19.3062 65.9446 19.4229 65.366 19.4229C64.7126 19.4229 64.1153 19.2549 63.574 18.9189C63.042 18.5829 62.6173 18.1115 62.3 17.5049C61.992 16.8889 61.838 16.1842 61.838 15.3909ZM67.942 15.4189C67.942 14.9429 67.8486 14.5369 67.662 14.2009C67.4753 13.8555 67.2233 13.5942 66.906 13.4169C66.5886 13.2302 66.248 13.1369 65.884 13.1369C65.52 13.1369 65.184 13.2255 64.876 13.4029C64.568 13.5802 64.316 13.8415 64.12 14.1869C63.9333 14.5229 63.84 14.9242 63.84 15.3909C63.84 15.8575 63.9333 16.2682 64.12 16.6229C64.316 16.9682 64.568 17.2342 64.876 17.4209C65.1933 17.6075 65.5293 17.7009 65.884 17.7009C66.248 17.7009 66.5886 17.6122 66.906 17.4349C67.2233 17.2482 67.4753 16.9869 67.662 16.6509C67.8486 16.3055 67.942 15.8949 67.942 15.4189ZM74.1123 13.1509V16.9029C74.1123 17.1642 74.1729 17.3555 74.2943 17.4769C74.4249 17.5889 74.6396 17.6449 74.9383 17.6449H75.8483V19.2969H74.6163C72.9643 19.2969 72.1383 18.4942 72.1383 16.8889V13.1509H71.2143V11.5409H72.1383V9.62287H74.1123V11.5409H75.8483V13.1509H74.1123ZM84.468 15.2509C84.468 15.5309 84.4493 15.7829 84.412 16.0069H78.742C78.7887 16.5669 78.9847 17.0055 79.33 17.3229C79.6753 17.6402 80.1 17.7989 80.604 17.7989C81.332 17.7989 81.85 17.4862 82.158 16.8609H84.272C84.048 17.6075 83.6187 18.2235 82.984 18.7089C82.3493 19.1849 81.57 19.4229 80.646 19.4229C79.8993 19.4229 79.2273 19.2595 78.63 18.9329C78.042 18.5969 77.58 18.1255 77.244 17.5189C76.9173 16.9122 76.754 16.2122 76.754 15.4189C76.754 14.6162 76.9173 13.9115 77.244 13.3049C77.5707 12.6982 78.028 12.2315 78.616 11.9049C79.204 11.5782 79.8807 11.4149 80.646 11.4149C81.3833 11.4149 82.0413 11.5735 82.62 11.8909C83.208 12.2082 83.6607 12.6609 83.978 13.2489C84.3047 13.8275 84.468 14.4949 84.468 15.2509ZM82.438 14.6909C82.4287 14.1869 82.2467 13.7855 81.892 13.4869C81.5373 13.1789 81.1033 13.0249 80.59 13.0249C80.1047 13.0249 79.694 13.1742 79.358 13.4729C79.0313 13.7622 78.8307 14.1682 78.756 14.6909H82.438Z" fill="white"/>
</g>
<defs>
<filter id="filter0_d_4100_6699" x="0" y="0.296875" width="101" height="37" filterUnits="userSpaceOnUse" color-interpolation-filters="sRGB">
<feFlood flood-opacity="0" result="BackgroundImageFix"/>
<feColorMatrix in="SourceAlpha" type="matrix" values="0 0 0 0 0 0 0 0 0 0 0 0 0 0 0 0 0 0 127 0" result="hardAlpha"/>
<feOffset dy="4"/>
<feGaussianBlur stdDeviation="2"/>
<feComposite in2="hardAlpha" operator="out"/>
<feColorMatrix type="matrix" values="0 0 0 0 0 0 0 0 0 0 0 0 0 0 0 0 0 0 0.15 0"/>
<feBlend mode="normal" in2="BackgroundImageFix" result="effect1_dropShadow_4100_6699"/>
<feBlend mode="normal" in="SourceGraphic" in2="effect1_dropShadow_4100_6699" result="shape"/>
</filter>
</defs>
</svg>
