<svg width="24" height="24" viewBox="0 0 24 24" fill="none" xmlns="http://www.w3.org/2000/svg">
<path fill-rule="evenodd" clip-rule="evenodd" d="M4.825 10.8809H8.205C8.326 10.8809 8.525 10.8809 8.707 10.8969C8.932 10.9169 9.316 10.9729 9.722 11.1999C10.1244 11.4252 10.4567 11.7574 10.682 12.1599C10.908 12.5649 10.964 12.9489 10.984 13.1739C11.001 13.3569 11 13.5549 11 13.6759V19.0859C11 19.2069 11 19.4059 10.984 19.5879C10.964 19.8129 10.909 20.1969 10.681 20.6029C10.4557 21.0053 10.1234 21.3375 9.721 21.5629C9.40842 21.7347 9.06267 21.8377 8.707 21.8649C8.524 21.8809 8.326 21.8809 8.205 21.8809H4.795C4.675 21.8809 4.475 21.8809 4.293 21.8649C3.93725 21.8374 3.5915 21.7341 3.279 21.5619C2.87657 21.3365 2.54432 21.0043 2.319 20.6019C2.1468 20.2894 2.04348 19.9436 2.016 19.5879C2 19.4049 2 19.2069 2 19.0859V13.6759C2 13.5559 2 13.3559 2.016 13.1739C2.036 12.9489 2.092 12.5649 2.319 12.1599C2.54432 11.7574 2.87657 11.4252 3.279 11.1999C3.5915 11.0277 3.93725 10.9243 4.293 10.8969C4.476 10.8809 4.674 10.8809 4.795 10.8809H4.825ZM4.064 13.1369C4 13.2509 4 13.4009 4 13.7069V19.0569C4 19.3599 4 19.5119 4.064 19.6249C4.10906 19.7053 4.17551 19.7718 4.256 19.8169C4.37 19.8809 4.521 19.8809 4.825 19.8809H8.175C8.479 19.8809 8.631 19.8809 8.745 19.8169C8.82512 19.7717 8.89121 19.7052 8.936 19.6249C9 19.5119 9 19.3609 9 19.0559V13.7059C9 13.4019 9 13.2509 8.936 13.1359C8.89079 13.0557 8.82435 12.9897 8.744 12.9449C8.631 12.8809 8.48 12.8809 8.175 12.8809H4.825C4.521 12.8809 4.37 12.8809 4.255 12.9449C4.17488 12.9901 4.10879 13.0565 4.064 13.1369ZM4.825 1.88086H8.205C8.326 1.88086 8.525 1.88086 8.707 1.89686C8.932 1.91686 9.316 1.97286 9.722 2.19986C10.1244 2.42518 10.4567 2.75743 10.682 3.15986C10.908 3.56486 10.964 3.94886 10.984 4.17386C11.001 4.35686 11 4.55486 11 4.67586V7.08586C11 7.20686 11 7.40586 10.984 7.58786C10.964 7.81286 10.909 8.19686 10.681 8.60286C10.4557 9.00529 10.1234 9.33754 9.721 9.56286C9.40842 9.73471 9.06267 9.83769 8.707 9.86486C8.524 9.88186 8.326 9.88086 8.205 9.88086H4.795C4.675 9.88086 4.475 9.88086 4.293 9.86486C3.93725 9.83738 3.5915 9.73406 3.279 9.56186C2.87657 9.33654 2.54432 9.00429 2.319 8.60186C2.1468 8.28935 2.04348 7.94361 2.016 7.58786C2 7.40486 2 7.20686 2 7.08586V4.67586C2 4.55586 2 4.35586 2.016 4.17386C2.036 3.94886 2.092 3.56486 2.319 3.15986C2.54432 2.75743 2.87657 2.42518 3.279 2.19986C3.5915 2.02766 3.93725 1.92434 4.293 1.89686C4.476 1.88086 4.674 1.88086 4.795 1.88086H4.825ZM4.064 4.13686C4 4.25086 4 4.40086 4 4.70586V7.05586C4 7.35986 4 7.51186 4.064 7.62586C4.10921 7.70598 4.17565 7.77207 4.256 7.81686C4.37 7.88086 4.52 7.88086 4.825 7.88086H8.175C8.479 7.88086 8.631 7.88086 8.745 7.81686C8.82512 7.77165 8.89121 7.70521 8.936 7.62486C9 7.51186 9 7.36086 9 7.05586V4.70586C9 4.40186 9 4.25086 8.936 4.13586C8.89079 4.05574 8.82435 3.98965 8.744 3.94486C8.631 3.88086 8.48 3.88086 8.175 3.88086H4.825C4.521 3.88086 4.37 3.88086 4.255 3.94486C4.17488 3.99007 4.10879 4.05651 4.064 4.13686ZM15.825 12.8809H19.205C19.326 12.8809 19.525 12.8809 19.707 12.8649C19.932 12.8449 20.316 12.7899 20.722 12.5619C21.1244 12.3365 21.4567 12.0043 21.682 11.6019C21.909 11.1969 21.964 10.8129 21.984 10.5879C22 10.4049 22 10.2069 22 10.0859V4.67586C22 4.55586 22 4.35586 21.984 4.17386C21.9565 3.81811 21.8532 3.47236 21.681 3.15986C21.4557 2.75743 21.1234 2.42518 20.721 2.19986C20.4085 2.02766 20.0627 1.92434 19.707 1.89686C19.524 1.88086 19.326 1.88086 19.205 1.88086H15.795C15.675 1.88086 15.475 1.88086 15.293 1.89686C15.068 1.91686 14.684 1.97286 14.279 2.19986C13.8766 2.42518 13.5443 2.75743 13.319 3.15986C13.1468 3.47236 13.0435 3.81811 13.016 4.17386C13 4.35686 13 4.55486 13 4.67586V10.0859C13 10.2069 13 10.4059 13.016 10.5879C13.036 10.8129 13.092 11.1969 13.319 11.6029C13.5443 12.0053 13.8766 12.3375 14.279 12.5629C14.684 12.7889 15.068 12.8449 15.293 12.8649C15.476 12.8819 15.674 12.8809 15.795 12.8809H15.825ZM15.064 10.6249C15 10.5109 15 10.3609 15 10.0559V4.70586C15 4.40186 15 4.25086 15.064 4.13586C15.1092 4.05574 15.1756 3.98965 15.256 3.94486C15.37 3.88086 15.52 3.88086 15.826 3.88086H19.176C19.479 3.88086 19.631 3.88086 19.744 3.94486C19.8245 3.98992 19.8909 4.05637 19.936 4.13686C20 4.25086 20 4.40186 20 4.70586V10.0559C20 10.3599 20 10.5109 19.936 10.6259C19.8908 10.706 19.8244 10.7721 19.744 10.8169C19.631 10.8809 19.479 10.8809 19.175 10.8809H15.825C15.521 10.8809 15.37 10.8809 15.255 10.8169C15.1749 10.7716 15.1088 10.7052 15.064 10.6249ZM15.825 21.8809H19.205C19.326 21.8809 19.525 21.8809 19.707 21.8649C19.932 21.8449 20.316 21.7889 20.722 21.5619C21.1244 21.3365 21.4567 21.0043 21.682 20.6019C21.909 20.1969 21.964 19.8129 21.984 19.5879C22 19.4049 22 19.2069 22 19.0859V16.6759C22 16.5559 22 16.3559 21.984 16.1739C21.9565 15.8181 21.8532 15.4724 21.681 15.1599C21.4557 14.7574 21.1234 14.4252 20.721 14.1999C20.4085 14.0277 20.0627 13.9243 19.707 13.8969C19.524 13.8809 19.326 13.8809 19.205 13.8809H15.795C15.675 13.8809 15.475 13.8809 15.293 13.8969C15.068 13.9169 14.684 13.9729 14.279 14.1999C13.8766 14.4252 13.5443 14.7574 13.319 15.1599C13.1468 15.4724 13.0435 15.8181 13.016 16.1739C13 16.3569 13 16.5549 13 16.6759V19.0859C13 19.2069 13 19.4059 13.016 19.5879C13.036 19.8129 13.092 20.1969 13.319 20.6029C13.5443 21.0053 13.8766 21.3375 14.279 21.5629C14.684 21.7899 15.068 21.8449 15.293 21.8649C15.476 21.8809 15.674 21.8809 15.795 21.8809H15.825ZM15.064 19.6249C15 19.5119 15 19.3609 15 19.0559V16.7059C15 16.4019 15 16.2509 15.064 16.1359C15.1092 16.0557 15.1756 15.9896 15.256 15.9449C15.37 15.8809 15.521 15.8809 15.826 15.8809H19.176C19.479 15.8809 19.631 15.8809 19.744 15.9449C19.824 15.9899 19.891 16.0559 19.936 16.1369C20 16.2509 20 16.4019 20 16.7069V19.0569C20 19.3599 20 19.5119 19.936 19.6249C19.8909 19.7053 19.8245 19.7718 19.744 19.8169C19.631 19.8809 19.479 19.8809 19.175 19.8809H15.825C15.521 19.8809 15.37 19.8809 15.255 19.8169C15.1749 19.7717 15.1088 19.7052 15.064 19.6249Z" fill="#E1EBF3"/>
</svg>
