<svg width="24" height="26" viewBox="0 0 24 26" fill="none" xmlns="http://www.w3.org/2000/svg">
<path d="M21.46 24.5061V21.0562C21.46 17.804 21.46 16.1768 20.3612 15.1671C19.2637 14.1562 17.495 14.1562 13.96 14.1562H8.95996C5.42496 14.1562 3.65621 14.1562 2.55871 15.1671C1.45996 16.1768 1.45996 17.804 1.45996 21.0562C1.45996 22.1279 1.45996 22.6638 1.64996 23.0859C1.7756 23.3651 1.95983 23.6188 2.19212 23.8325C2.4244 24.0462 2.70019 24.2157 3.00371 24.3313C3.46246 24.5061 4.04496 24.5061 5.20996 24.5061V14.7312M8.33496 14.1562L12.085 24.5061" stroke="#051721" stroke-width="1.9" stroke-linecap="round" stroke-linejoin="round"/>
<path d="M11.4601 21.0556H14.5851C15.0824 21.0556 15.5593 21.2373 15.9109 21.5608C16.2625 21.8843 16.4601 22.3231 16.4601 22.7806C16.4601 23.2381 16.2625 23.6768 15.9109 24.0003C15.5593 24.3238 15.0824 24.5056 14.5851 24.5056H5.21008M15.8351 6.68079V5.53081C15.8351 5.00224 15.7219 4.47885 15.5021 3.99053C15.2822 3.5022 14.9599 3.05849 14.5537 2.68474C14.1474 2.31099 13.6651 2.01451 13.1343 1.81224C12.6035 1.60997 12.0346 1.50586 11.4601 1.50586C10.8855 1.50586 10.3166 1.60997 9.78584 1.81224C9.25504 2.01451 8.77275 2.31099 8.36649 2.68474C7.96023 3.05849 7.63797 3.5022 7.41811 3.99053C7.19824 4.47885 7.08508 5.00224 7.08508 5.53081V6.68079C7.08508 7.20936 7.19824 7.73274 7.41811 8.22107C7.63797 8.7094 7.96023 9.15311 8.36649 9.52686C8.77275 9.90061 9.25504 10.1971 9.78584 10.3994C10.3166 10.6016 10.8855 10.7057 11.4601 10.7057C12.0346 10.7057 12.6035 10.6016 13.1343 10.3994C13.6651 10.1971 14.1474 9.90061 14.5537 9.52686C14.9599 9.15311 15.2822 8.7094 15.5021 8.22107C15.7219 7.73274 15.8351 7.20936 15.8351 6.68079Z" stroke="#051721" stroke-width="1.9" stroke-linecap="round" stroke-linejoin="round"/>
</svg>
