<svg width="24" height="26" viewBox="0 0 24 26" fill="none" xmlns="http://www.w3.org/2000/svg">
<path d="M21.46 24.1253V20.6753C21.46 17.4231 21.46 15.7959 20.3612 14.7862C19.2637 13.7754 17.495 13.7754 13.96 13.7754H8.95996C5.42496 13.7754 3.65621 13.7754 2.55871 14.7862C1.45996 15.7959 1.45996 17.4231 1.45996 20.6753C1.45996 21.7471 1.45996 22.283 1.64996 22.705C1.7756 22.9843 1.95983 23.238 2.19212 23.4517C2.4244 23.6654 2.70019 23.8349 3.00371 23.9505C3.46246 24.1253 4.04496 24.1253 5.20996 24.1253V14.3504M8.33496 13.7754L12.085 24.1253" stroke="#E1EBF3" stroke-width="1.9" stroke-linecap="round" stroke-linejoin="round"/>
<path d="M11.4601 20.6747H14.5851C15.0824 20.6747 15.5593 20.8565 15.9109 21.18C16.2625 21.5035 16.4601 21.9422 16.4601 22.3997C16.4601 22.8572 16.2625 23.296 15.9109 23.6195C15.5593 23.943 15.0824 24.1247 14.5851 24.1247H5.21008M15.8351 6.29993V5.14995C15.8351 4.62138 15.7219 4.098 15.5021 3.60967C15.2822 3.12134 14.9599 2.67763 14.5537 2.30388C14.1474 1.93013 13.6651 1.63365 13.1343 1.43138C12.6035 1.22911 12.0346 1.125 11.4601 1.125C10.8855 1.125 10.3166 1.22911 9.78584 1.43138C9.25504 1.63365 8.77275 1.93013 8.36649 2.30388C7.96023 2.67763 7.63797 3.12134 7.41811 3.60967C7.19824 4.098 7.08508 4.62138 7.08508 5.14995V6.29993C7.08508 6.8285 7.19824 7.35188 7.41811 7.84021C7.63797 8.32854 7.96023 8.77225 8.36649 9.146C8.77275 9.51975 9.25504 9.81623 9.78584 10.0185C10.3166 10.2208 10.8855 10.3249 11.4601 10.3249C12.0346 10.3249 12.6035 10.2208 13.1343 10.0185C13.6651 9.81623 14.1474 9.51975 14.5537 9.146C14.9599 8.77225 15.2822 8.32854 15.5021 7.84021C15.7219 7.35188 15.8351 6.8285 15.8351 6.29993Z" stroke="#E1EBF3" stroke-width="1.9" stroke-linecap="round" stroke-linejoin="round"/>
</svg>
