<svg width="24" height="25" viewBox="0 0 24 25" fill="none" xmlns="http://www.w3.org/2000/svg">
<path d="M16 7.11914C16 8.18001 15.5786 9.19742 14.8284 9.94757C14.0783 10.6977 13.0609 11.1191 12 11.1191C10.9391 11.1191 9.92172 10.6977 9.17157 9.94757C8.42143 9.19742 8 8.18001 8 7.11914C8 6.05827 8.42143 5.04086 9.17157 4.29071C9.92172 3.54057 10.9391 3.11914 12 3.11914C13.0609 3.11914 14.0783 3.54057 14.8284 4.29071C15.5786 5.04086 16 6.05827 16 7.11914V7.11914ZM12 14.1191C10.1435 14.1191 8.36301 14.8566 7.05025 16.1694C5.7375 17.4821 5 19.2626 5 21.1191H19C19 19.2626 18.2625 17.4821 16.9497 16.1694C15.637 14.8566 13.8565 14.1191 12 14.1191V14.1191Z" stroke="#E1EBF3" stroke-width="2" stroke-linecap="round" stroke-linejoin="round"/>
</svg>
