<svg width="24" height="26" viewBox="0 0 24 26" fill="none" xmlns="http://www.w3.org/2000/svg">
<g clip-path="url(#clip0_4100_6622)">
<path d="M10.1998 3.8683H13.7998C13.7998 3.3947 13.6102 2.9405 13.2726 2.60561C12.935 2.27073 12.4772 2.08259 11.9998 2.08259C11.5224 2.08259 11.0646 2.27073 10.727 2.60561C10.3894 2.9405 10.1998 3.3947 10.1998 3.8683ZM8.3998 3.8683C8.3998 2.9211 8.77909 2.01269 9.45422 1.34292C10.1294 0.673149 11.045 0.296875 11.9998 0.296875C12.9546 0.296875 13.8703 0.673149 14.5454 1.34292C15.2205 2.01269 15.5998 2.9211 15.5998 3.8683H22.7998C23.0385 3.8683 23.2674 3.96237 23.4362 4.12982C23.605 4.29726 23.6998 4.52436 23.6998 4.76116C23.6998 4.99796 23.605 5.22506 23.4362 5.39251C23.2674 5.55995 23.0385 5.65402 22.7998 5.65402H21.7846L19.6156 21.4362C19.4685 22.5057 18.9358 23.4861 18.116 24.1959C17.2963 24.9057 16.2451 25.2969 15.157 25.2969H8.8426C7.75453 25.2969 6.70332 24.9057 5.88358 24.1959C5.06385 23.4861 4.53111 22.5057 4.384 21.4362L2.215 5.65402H1.1998C0.96111 5.65402 0.732191 5.55995 0.563409 5.39251C0.394626 5.22506 0.299805 4.99796 0.299805 4.76116C0.299805 4.52436 0.394626 4.29726 0.563409 4.12982C0.732191 3.96237 0.96111 3.8683 1.1998 3.8683H8.3998ZM10.1998 10.1183C10.1998 9.8815 10.105 9.6544 9.9362 9.48696C9.76742 9.31952 9.5385 9.22545 9.2998 9.22545C9.06111 9.22545 8.83219 9.31952 8.66341 9.48696C8.49463 9.6544 8.3998 9.8815 8.3998 10.1183V19.0469C8.3998 19.2837 8.49463 19.5108 8.66341 19.6782C8.83219 19.8457 9.06111 19.9397 9.2998 19.9397C9.5385 19.9397 9.76742 19.8457 9.9362 19.6782C10.105 19.5108 10.1998 19.2837 10.1998 19.0469V10.1183ZM14.6998 9.22545C14.9385 9.22545 15.1674 9.31952 15.3362 9.48696C15.505 9.6544 15.5998 9.8815 15.5998 10.1183V19.0469C15.5998 19.2837 15.505 19.5108 15.3362 19.6782C15.1674 19.8457 14.9385 19.9397 14.6998 19.9397C14.4611 19.9397 14.2322 19.8457 14.0634 19.6782C13.8946 19.5108 13.7998 19.2837 13.7998 19.0469V10.1183C13.7998 9.8815 13.8946 9.6544 14.0634 9.48696C14.2322 9.31952 14.4611 9.22545 14.6998 9.22545ZM6.1678 21.1951C6.25614 21.8367 6.57576 22.4248 7.06752 22.8506C7.55928 23.2764 8.18988 23.5111 8.8426 23.5112H15.157C15.81 23.5115 16.4411 23.277 16.9332 22.8512C17.4253 22.4253 17.7452 21.837 17.8336 21.1951L19.9684 5.65402H4.0312L6.1678 21.1951Z" fill="#0D425D"/>
</g>
<defs>
<clipPath id="clip0_4100_6622">
<rect width="24" height="25" fill="white" transform="translate(0 0.296875)"/>
</clipPath>
</defs>
</svg>
