<svg width="24" height="25" viewBox="0 0 24 25" fill="none" xmlns="http://www.w3.org/2000/svg">
<path d="M10.325 4.43614C10.751 2.68014 13.249 2.68014 13.675 4.43614C13.7389 4.69994 13.8642 4.94492 14.0407 5.15114C14.2172 5.35736 14.4399 5.51899 14.6907 5.62289C14.9414 5.72678 15.2132 5.76999 15.4838 5.74901C15.7544 5.72803 16.0162 5.64344 16.248 5.50214C17.791 4.56214 19.558 6.32814 18.618 7.87214C18.4769 8.1038 18.3924 8.36548 18.3715 8.63591C18.3506 8.90635 18.3938 9.17791 18.4975 9.42852C18.6013 9.67913 18.7627 9.90172 18.9687 10.0782C19.1747 10.2547 19.4194 10.38 19.683 10.4441C21.439 10.8701 21.439 13.3681 19.683 13.7941C19.4192 13.8581 19.1742 13.9834 18.968 14.1599C18.7618 14.3363 18.6001 14.559 18.4963 14.8098C18.3924 15.0606 18.3491 15.3323 18.3701 15.6029C18.3911 15.8735 18.4757 16.1354 18.617 16.3671C19.557 17.9101 17.791 19.6771 16.247 18.7371C16.0153 18.596 15.7537 18.5116 15.4832 18.4907C15.2128 18.4697 14.9412 18.5129 14.6906 18.6167C14.44 18.7204 14.2174 18.8819 14.0409 19.0879C13.8645 19.2939 13.7391 19.5386 13.675 19.8021C13.249 21.5581 10.751 21.5581 10.325 19.8021C10.2611 19.5383 10.1358 19.2934 9.95929 19.0871C9.7828 18.8809 9.56011 18.7193 9.30935 18.6154C9.05859 18.5115 8.78683 18.4683 8.51621 18.4893C8.24559 18.5103 7.98375 18.5948 7.752 18.7361C6.209 19.6761 4.442 17.9101 5.382 16.3661C5.5231 16.1345 5.60755 15.8728 5.62848 15.6024C5.64942 15.3319 5.60624 15.0604 5.50247 14.8098C5.3987 14.5592 5.23726 14.3366 5.03127 14.1601C4.82529 13.9836 4.58056 13.8582 4.317 13.7941C2.561 13.3681 2.561 10.8701 4.317 10.4441C4.5808 10.3802 4.82578 10.2549 5.032 10.0784C5.23822 9.90194 5.39985 9.67925 5.50375 9.42849C5.60764 9.17773 5.65085 8.90598 5.62987 8.63535C5.60889 8.36473 5.5243 8.10289 5.383 7.87114C4.443 6.32814 6.209 4.56114 7.753 5.50114C8.749 6.10914 10.049 5.57114 10.325 4.43614Z" stroke="#E1EBF3" stroke-width="2" stroke-linecap="round" stroke-linejoin="round"/>
<path d="M15 12.1191C15 12.9148 14.6839 13.6779 14.1213 14.2405C13.5587 14.8031 12.7956 15.1191 12 15.1191C11.2044 15.1191 10.4413 14.8031 9.87868 14.2405C9.31607 13.6779 9 12.9148 9 12.1191C9 11.3235 9.31607 10.5604 9.87868 9.99782C10.4413 9.43521 11.2044 9.11914 12 9.11914C12.7956 9.11914 13.5587 9.43521 14.1213 9.99782C14.6839 10.5604 15 11.3235 15 12.1191V12.1191Z" stroke="#E1EBF3" stroke-width="2" stroke-linecap="round" stroke-linejoin="round"/>
</svg>
