<svg width="81" height="38" viewBox="0 0 81 38" fill="none" xmlns="http://www.w3.org/2000/svg">
<g filter="url(#filter0_d_4100_6617)">
<rect x="4" y="0.296875" width="73" height="29" rx="14.5" fill="#C80E14" shape-rendering="crispEdges"/>
<path d="M19.2808 9.52487V15.5729C19.2808 16.2355 19.4535 16.7442 19.7988 17.0989C20.1441 17.4442 20.6295 17.6169 21.2548 17.6169C21.8895 17.6169 22.3795 17.4442 22.7248 17.0989C23.0701 16.7442 23.2428 16.2355 23.2428 15.5729V9.52487H25.2168V15.5589C25.2168 16.3895 25.0348 17.0942 24.6708 17.6729C24.3161 18.2422 23.8355 18.6715 23.2288 18.9609C22.6315 19.2502 21.9641 19.3949 21.2268 19.3949C20.4988 19.3949 19.8361 19.2502 19.2388 18.9609C18.6508 18.6715 18.1841 18.2422 17.8388 17.6729C17.4935 17.0942 17.3208 16.3895 17.3208 15.5589V9.52487H19.2808ZM29.0705 12.7449C29.3225 12.3342 29.6492 12.0122 30.0505 11.7789C30.4612 11.5455 30.9279 11.4289 31.4505 11.4289V13.4869H30.9325C30.3165 13.4869 29.8499 13.6315 29.5325 13.9209C29.2245 14.2102 29.0705 14.7142 29.0705 15.4329V19.2969H27.1105V11.5409H29.0705V12.7449ZM35.8087 11.4149C36.3874 11.4149 36.896 11.5315 37.3347 11.7649C37.7734 11.9889 38.1187 12.2829 38.3707 12.6469V11.5409H40.3447V19.3529C40.3447 20.0715 40.2 20.7109 39.9107 21.2709C39.6214 21.8402 39.1874 22.2882 38.6087 22.6149C38.03 22.9509 37.33 23.1189 36.5087 23.1189C35.4074 23.1189 34.502 22.8622 33.7927 22.3489C33.0927 21.8355 32.696 21.1355 32.6027 20.2489H34.5487C34.6514 20.6035 34.8707 20.8835 35.2067 21.0889C35.552 21.3035 35.9674 21.4109 36.4527 21.4109C37.022 21.4109 37.484 21.2382 37.8387 20.8929C38.1934 20.5569 38.3707 20.0435 38.3707 19.3529V18.1489C38.1187 18.5129 37.7687 18.8162 37.3207 19.0589C36.882 19.3015 36.378 19.4229 35.8087 19.4229C35.1554 19.4229 34.558 19.2549 34.0167 18.9189C33.4754 18.5829 33.046 18.1115 32.7287 17.5049C32.4207 16.8889 32.2667 16.1842 32.2667 15.3909C32.2667 14.6069 32.4207 13.9115 32.7287 13.3049C33.046 12.6982 33.4707 12.2315 34.0027 11.9049C34.544 11.5782 35.146 11.4149 35.8087 11.4149ZM38.3707 15.4189C38.3707 14.9429 38.2774 14.5369 38.0907 14.2009C37.904 13.8555 37.652 13.5942 37.3347 13.4169C37.0174 13.2302 36.6767 13.1369 36.3127 13.1369C35.9487 13.1369 35.6127 13.2255 35.3047 13.4029C34.9967 13.5802 34.7447 13.8415 34.5487 14.1869C34.362 14.5229 34.2687 14.9242 34.2687 15.3909C34.2687 15.8575 34.362 16.2682 34.5487 16.6229C34.7447 16.9682 34.9967 17.2342 35.3047 17.4209C35.622 17.6075 35.958 17.7009 36.3127 17.7009C36.6767 17.7009 37.0174 17.6122 37.3347 17.4349C37.652 17.2482 37.904 16.9869 38.0907 16.6509C38.2774 16.3055 38.3707 15.8949 38.3707 15.4189ZM49.469 15.2509C49.469 15.5309 49.4503 15.7829 49.413 16.0069H43.743C43.7896 16.5669 43.9856 17.0055 44.331 17.3229C44.6763 17.6402 45.101 17.7989 45.605 17.7989C46.333 17.7989 46.851 17.4862 47.159 16.8609H49.273C49.049 17.6075 48.6196 18.2235 47.985 18.7089C47.3503 19.1849 46.571 19.4229 45.647 19.4229C44.9003 19.4229 44.2283 19.2595 43.631 18.9329C43.043 18.5969 42.581 18.1255 42.245 17.5189C41.9183 16.9122 41.755 16.2122 41.755 15.4189C41.755 14.6162 41.9183 13.9115 42.245 13.3049C42.5716 12.6982 43.029 12.2315 43.617 11.9049C44.205 11.5782 44.8816 11.4149 45.647 11.4149C46.3843 11.4149 47.0423 11.5735 47.621 11.8909C48.209 12.2082 48.6616 12.6609 48.979 13.2489C49.3056 13.8275 49.469 14.4949 49.469 15.2509ZM47.439 14.6909C47.4296 14.1869 47.2476 13.7855 46.893 13.4869C46.5383 13.1789 46.1043 13.0249 45.591 13.0249C45.1056 13.0249 44.695 13.1742 44.359 13.4729C44.0323 13.7622 43.8316 14.1682 43.757 14.6909H47.439ZM55.1976 11.4289C56.1216 11.4289 56.8683 11.7229 57.4376 12.3109C58.0069 12.8895 58.2916 13.7015 58.2916 14.7469V19.2969H56.3316V15.0129C56.3316 14.3969 56.1776 13.9255 55.8696 13.5989C55.5616 13.2629 55.1416 13.0949 54.6096 13.0949C54.0683 13.0949 53.6389 13.2629 53.3216 13.5989C53.0136 13.9255 52.8596 14.3969 52.8596 15.0129V19.2969H50.8996V11.5409H52.8596V12.5069C53.1209 12.1709 53.4523 11.9095 53.8536 11.7229C54.2643 11.5269 54.7123 11.4289 55.1976 11.4289ZM62.4375 13.1509V16.9029C62.4375 17.1642 62.4981 17.3555 62.6195 17.4769C62.7501 17.5889 62.9648 17.6449 63.2635 17.6449H64.1735V19.2969H62.9415C61.2895 19.2969 60.4635 18.4942 60.4635 16.8889V13.1509H59.5395V11.5409H60.4635V9.62287H62.4375V11.5409H64.1735V13.1509H62.4375Z" fill="#F5F5F5"/>
</g>
<defs>
<filter id="filter0_d_4100_6617" x="0" y="0.296875" width="81" height="37" filterUnits="userSpaceOnUse" color-interpolation-filters="sRGB">
<feFlood flood-opacity="0" result="BackgroundImageFix"/>
<feColorMatrix in="SourceAlpha" type="matrix" values="0 0 0 0 0 0 0 0 0 0 0 0 0 0 0 0 0 0 127 0" result="hardAlpha"/>
<feOffset dy="4"/>
<feGaussianBlur stdDeviation="2"/>
<feComposite in2="hardAlpha" operator="out"/>
<feColorMatrix type="matrix" values="0 0 0 0 0 0 0 0 0 0 0 0 0 0 0 0 0 0 0.15 0"/>
<feBlend mode="normal" in2="BackgroundImageFix" result="effect1_dropShadow_4100_6617"/>
<feBlend mode="normal" in="SourceGraphic" in2="effect1_dropShadow_4100_6617" result="shape"/>
</filter>
</defs>
</svg>
